<?xml version="1.0" encoding="UTF-8"?>
<svg version="1.1" xmlns="http://www.w3.org/2000/svg" width="5000" height="3125">
<path d="M0 0 C0.7425 0.36609375 1.485 0.7321875 2.25 1.109375 C31.4339338 16.32671191 51.86678579 46.17762164 64 76 C64.4846875 75.00742188 64.969375 74.01484375 65.46875 72.9921875 C71.91770781 59.87648953 78.31966987 47.08671771 88 36 C88.74507812 35.14535156 89.49015625 34.29070312 90.2578125 33.41015625 C92.47527853 30.91080894 94.72874849 28.45045117 97 26 C97.52722656 25.40703125 98.05445313 24.8140625 98.59765625 24.203125 C120.42693162 0.75479852 155.17973452 -11.63157508 186.6171875 -13.12426758 C223.77896294 -14.180892 259.1313117 -5.38455919 288 19 C289.00160156 19.82113281 290.00320313 20.64226562 291.03515625 21.48828125 C302.5892688 31.41734281 311.02623002 43.56312512 318 57 C318.47050781 57.89976563 318.94101563 58.79953125 319.42578125 59.7265625 C325.28261963 71.73036129 328.11960412 84.52321323 330.25 97.625 C330.41314697 98.6248291 330.57629395 99.6246582 330.74438477 100.65478516 C332.79885769 114.13186515 333.14926693 127.60657829 333.13371277 141.21421814 C333.13558597 142.79301191 333.13788867 144.37180523 333.14057809 145.95059782 C333.14663877 150.24526767 333.14656937 154.53991789 333.14538372 158.83459103 C333.14517827 163.48278861 333.15071182 168.13098011 333.15544128 172.7791748 C333.16371471 181.86576877 333.16649454 190.95235624 333.16705366 200.03895365 C333.16752999 207.42363506 333.16959056 214.80831434 333.17275429 222.19299507 C333.18154852 243.14744694 333.1861751 264.1018937 333.18542381 285.05634742 C333.18536388 286.74754114 333.18536388 286.74754114 333.18530273 288.47290039 C333.18524141 290.16616522 333.18524141 290.16616522 333.18517885 291.89363743 C333.18477178 310.21665733 333.19435987 328.53965674 333.2084411 346.86267071 C333.22279836 365.69371232 333.22971178 384.52474393 333.22884732 403.35579115 C333.22851534 413.92153355 333.23126381 424.48725441 333.24202538 435.05299187 C333.25112135 444.04046328 333.25331272 453.02790337 333.24651595 462.01537739 C333.24324741 466.59967288 333.24320638 471.18390822 333.2518692 475.76819801 C333.25971924 479.96543097 333.25831814 484.16255595 333.24958507 488.35978622 C333.2480469 489.87696727 333.24987818 491.39415633 333.25544515 492.91132795 C333.3216084 512.22348546 333.3216084 512.22348546 327.8125 518.3125 C326.98685547 519.26576172 326.98685547 519.26576172 326.14453125 520.23828125 C320.22792505 525.09873552 314.41311923 525.43742696 307.06079102 525.38818359 C306.08750854 525.39344055 305.11422607 525.39869751 304.1114502 525.40411377 C300.90877007 525.41726801 297.70659104 525.40859101 294.50390625 525.3984375 C292.26863002 525.40045971 290.03335443 525.40337237 287.79808044 525.40713501 C283.11849675 525.41155232 278.43908514 525.40514687 273.75952148 525.39111328 C267.7730948 525.37403186 261.78707197 525.38386 255.80066013 525.40183067 C251.1860197 525.41269289 246.57147434 525.40921077 241.95683098 525.4014473 C239.75011077 525.39945152 237.54338183 525.40188259 235.33667183 525.40888596 C232.24708461 525.41653933 229.1581429 525.40484103 226.06860352 525.38818359 C225.16393845 525.39425629 224.25927338 525.40032898 223.32719421 525.40658569 C216.75436779 525.34122547 210.90423051 524.47083762 205.72265625 520.0625 C205.17480469 519.381875 204.62695312 518.70125 204.0625 518 C203.49660156 517.319375 202.93070313 516.63875 202.34765625 515.9375 C199.93462418 512.46832926 199.87329794 509.52207461 199.86692142 505.42087555 C199.86268038 504.25271537 199.85843933 503.0845552 199.85406977 501.88099623 C199.8544559 500.59144545 199.85484203 499.30189467 199.85523987 497.9732666 C199.85210672 496.59415983 199.84853205 495.21505401 199.84455246 493.83594942 C199.83483986 490.0370773 199.83130154 486.23822022 199.82870948 482.43933749 C199.82481941 478.34491171 199.81518127 474.25049926 199.80615234 470.15608215 C199.79119962 463.05489879 199.77966066 455.9537165 199.77020454 448.8525238 C199.7563279 438.56463515 199.73513733 428.27677104 199.71177601 417.98890001 C199.6738309 401.2710889 199.63887939 384.55327332 199.60717773 367.83544922 C199.60527724 366.83429244 199.60337675 365.83313567 199.60141867 364.80164081 C199.57464209 350.62429618 199.55075603 336.44694815 199.52803367 322.26959652 C199.52643637 321.2732908 199.52483906 320.27698508 199.52319336 319.25048828 C199.52159989 318.2554016 199.52000643 317.26031492 199.51836468 316.2350741 C199.49152887 299.59995694 199.45709639 282.96486561 199.41653961 266.32977629 C199.39185218 256.07957955 199.37347673 245.82941051 199.363384 235.57918882 C199.35595129 228.53902757 199.34136273 221.49890349 199.32131977 214.45876694 C199.31001061 210.40584482 199.30178893 206.35298242 199.30232811 202.30004311 C200.35029828 167.6002696 200.35029828 167.6002696 189.8359375 135.171875 C188 132 188 132 188 130 C187.34 130 186.68 130 186 130 C184.80859375 128.64453125 184.80859375 128.64453125 183.4375 126.8125 C179.91194917 122.55604229 175.93374649 120.35810458 171 118 C169.88625 117.443125 168.7725 116.88625 167.625 116.3125 C153.52532434 111.20744502 136.14615078 111.01743541 122 116 C121.25105469 116.25523437 120.50210937 116.51046875 119.73046875 116.7734375 C114.76294246 118.72464603 110.44872492 121.5661191 106.0625 124.5625 C105.494104 124.95066895 104.92570801 125.33883789 104.34008789 125.73876953 C101.59422597 127.67434314 99.88794862 129.16807707 98 132 C97.34 132 96.68 132 96 132 C96 132.66 96 133.32 96 134 C95.34 134 94.68 134 94 134 C93.59394531 135.09441406 93.59394531 135.09441406 93.1796875 136.2109375 C92.03888437 138.90806807 90.71019247 141.16918369 89.125 143.625 C78.13959355 161.94289861 77.19393123 185.43848593 76.44537354 206.33430481 C76.4032292 207.50279239 76.36108487 208.67127996 76.31766343 209.87517625 C75.88921119 222.78917367 75.8598649 235.69862018 75.87268662 248.61850941 C75.87501186 252.15401045 75.87138177 255.6895063 75.86836243 259.2250061 C75.86431511 264.53605282 75.86203379 269.84709511 75.86194643 275.15814338 C75.86174153 285.57589268 75.84916226 295.9935967 75.83233643 306.41133118 C75.82973137 308.06132544 75.82713255 309.71131971 75.8245399 311.361314 C75.8206029 313.85918736 75.8166561 316.35706071 75.81267868 318.854934 C75.79781386 328.21196274 75.78414309 337.56899275 75.77197266 346.92602539 C75.7708591 347.77892726 75.76974553 348.63182914 75.76859823 349.51057652 C75.75095012 363.39032764 75.74816021 377.27004964 75.74982306 391.1498101 C75.75110205 405.45219036 75.73338446 419.75446247 75.69880509 434.05680114 C75.67819444 442.85461129 75.67278753 451.65216202 75.6871334 460.44998584 C75.69559209 466.46482377 75.68586231 472.47945936 75.6618239 478.49425455 C75.64852753 481.96082744 75.64331012 485.42691472 75.65994453 488.89348412 C75.67377751 492.65351628 75.65696448 496.41221509 75.63250732 500.17216492 C75.6438627 501.26271091 75.65521808 502.3532569 75.66691756 503.47684973 C75.58259933 510.13807214 74.55569638 514.95387944 70 520 C65.34455685 523.58242156 60.58208322 525.11656727 54.77642822 525.14044189 C53.52339905 525.14900711 53.52339905 525.14900711 52.24505615 525.15774536 C51.33693176 525.15886322 50.42880737 525.15998108 49.49316406 525.16113281 C48.53007324 525.16609772 47.56698242 525.17106262 46.57470703 525.17617798 C43.38833908 525.1907833 40.20202093 525.19759924 37.015625 525.203125 C34.79848225 525.2088782 32.58133951 525.21463591 30.36419678 525.22039795 C25.71382414 525.23090358 21.06346877 525.23674899 16.41308594 525.24023438 C10.46360532 525.24571534 4.51435399 525.26973689 -1.43505478 525.29820633 C-6.01622172 525.31686071 -10.59733376 525.32203983 -15.17853546 525.32357025 C-17.37131248 525.32659143 -19.56408866 525.33460187 -21.75682831 525.34775543 C-24.8299232 525.36487269 -27.90246229 525.36292156 -30.97558594 525.35644531 C-32.32562714 525.37026749 -32.32562714 525.37026749 -33.70294189 525.3843689 C-40.27068666 525.34116622 -46.09986205 524.46735578 -51.27734375 520.0625 C-51.82519531 519.381875 -52.37304688 518.70125 -52.9375 518 C-53.50339844 517.319375 -54.06929687 516.63875 -54.65234375 515.9375 C-57.13518143 512.36797104 -57.14549 509.23839965 -57.20631409 505.01400757 C-57.2264538 503.74877636 -57.24659351 502.48354515 -57.26734352 501.1799736 C-57.28467889 499.7610987 -57.30175553 498.34222062 -57.31860352 496.92333984 C-57.33958973 495.41178714 -57.36080316 493.90023757 -57.38222313 492.38869095 C-57.43967993 488.18451252 -57.48914146 483.9802741 -57.53616023 479.77596712 C-57.56664018 477.06513228 -57.5987039 474.35431941 -57.63095284 471.6435051 C-58.03487964 437.06721712 -58.06370581 402.49230507 -58.02734375 367.9140625 C-58.02605736 366.61271708 -58.02477098 365.31137167 -58.02344561 363.97059155 C-58.00054132 341.08786302 -57.96743531 318.20514195 -57.92095947 295.32244873 C-57.91956502 294.63518743 -57.91817057 293.94792614 -57.91673386 293.23983874 C-57.91533794 292.55238015 -57.91394201 291.86492155 -57.91250378 291.15663087 C-57.90968536 289.76815756 -57.90686834 288.37968425 -57.90405273 286.99121094 C-57.9026592 286.30502452 -57.90126567 285.6188381 -57.89982992 284.91185816 C-57.87670342 273.420297 -57.86157742 261.92874385 -57.85249335 250.43716276 C-57.84604262 242.83351892 -57.83070109 235.22996682 -57.80817592 227.62635446 C-57.79635262 222.91745326 -57.79307374 218.20857334 -57.79207802 213.49965858 C-57.78995531 211.34435074 -57.78445124 209.18904272 -57.7750473 207.03375435 C-57.44462576 163.50290924 -57.44462576 163.50290924 -77 126 C-85.48893269 117.9977852 -94.55369322 113.86290563 -106 112 C-106.83015625 111.86464844 -107.6603125 111.72929688 -108.515625 111.58984375 C-122.06007231 109.8670851 -137.28212448 112.80834249 -149 120 C-151.06088113 121.60290754 -153.01681388 123.30012618 -155 125 C-155.66 125 -156.32 125 -157 125 C-157.2475 125.556875 -157.495 126.11375 -157.75 126.6875 C-159 129 -159 129 -160.875 131.3125 C-163.3093488 134.39123524 -165.22929279 137.51372871 -167 141 C-167.46535156 141.90878906 -167.93070313 142.81757812 -168.41015625 143.75390625 C-171.82234085 151.00588938 -173.99888727 158.19904746 -175.75 166 C-175.94843506 166.85722656 -176.14687012 167.71445313 -176.35131836 168.59765625 C-180.49066143 188.29363186 -180.29812873 208.55076824 -180.27269709 228.57461417 C-180.27017973 232.33650752 -180.27934016 236.09837628 -180.28707886 239.86026001 C-180.2990222 246.35272615 -180.30422629 252.84516795 -180.30496025 259.33764458 C-180.30629579 268.73186864 -180.32149065 278.12603423 -180.34045542 287.52023745 C-180.3711662 302.77821421 -180.39539703 318.03619244 -180.41333008 333.29418945 C-180.41440276 334.20401221 -180.41547544 335.11383497 -180.41658062 336.05122811 C-180.42842252 346.22116246 -180.43862982 356.39109739 -180.44702148 366.56103516 C-180.45009638 370.2611491 -180.45318499 373.96126304 -180.45629883 377.66137695 C-180.45706417 378.57462085 -180.45782951 379.48786474 -180.45861804 380.42878269 C-180.47169709 395.65419504 -180.49632187 410.87956432 -180.53004223 426.10494477 C-180.55030886 435.47893743 -180.56062488 444.85283803 -180.55805302 454.22685278 C-180.55701835 460.63835009 -180.56664832 467.04977437 -180.58469205 473.46124619 C-180.59473535 477.15842871 -180.59986654 480.85544961 -180.59192467 484.55264091 C-180.58341765 488.56038149 -180.59797481 492.56770976 -180.61473083 496.57542419 C-180.60851902 497.74233069 -180.6023072 498.90923719 -180.59590715 500.1115045 C-180.65382657 507.69547942 -181.2753727 512.84516839 -186.375 518.75 C-191.39898994 523.05627709 -195.61256981 525.10289351 -202.21011353 525.15390015 C-203.04257599 525.16250061 -203.87503845 525.17110107 -204.73272705 525.17996216 C-206.0902005 525.18635208 -206.0902005 525.18635208 -207.47509766 525.19287109 C-208.43497589 525.20104858 -209.39485413 525.20922607 -210.38381958 525.21765137 C-213.56056095 525.24246273 -216.73725769 525.25901225 -219.9140625 525.2734375 C-221.54472216 525.28142302 -221.54472216 525.28142302 -223.20832443 525.28956985 C-228.96455937 525.31628536 -234.72077276 525.33566377 -240.47705078 525.35009766 C-245.23180424 525.36342585 -249.98612743 525.3912608 -254.74072266 525.43212891 C-260.49013756 525.4815439 -266.23916279 525.50622987 -271.98878098 525.51332474 C-274.17435332 525.52002179 -276.3599175 525.53520332 -278.54536819 525.55921555 C-281.61354625 525.59099821 -284.68023426 525.59088368 -287.74853516 525.58349609 C-288.64137207 525.59990143 -289.53420898 525.61630676 -290.45410156 525.63320923 C-298.23060892 525.55704941 -304.94614217 523.05385783 -310.5 517.5 C-313.68656109 512.18906484 -314.28944972 507.76374914 -314.25726891 501.62965679 C-314.26077498 500.78547425 -314.26428105 499.9412917 -314.26789337 499.07152787 C-314.27723119 496.22980503 -314.2722779 493.38828606 -314.26742554 490.54655457 C-314.27116059 488.49378854 -314.27576153 486.44102395 -314.28115618 484.38826162 C-314.29341944 478.73700328 -314.2931218 473.085804 -314.29076743 467.43453538 C-314.2903601 461.34374281 -314.30139034 455.25296938 -314.31088257 449.16218567 C-314.32751167 437.22537127 -314.33301886 425.28857597 -314.33410732 413.35175296 C-314.33502608 403.65132666 -314.33914105 393.95090677 -314.34550858 384.25048256 C-314.34730364 381.45915789 -314.34908327 378.66783321 -314.35085833 375.87650853 C-314.35130043 375.18259463 -314.35174252 374.48868072 -314.35219802 373.77373912 C-314.36450807 354.25263642 -314.37239898 334.73153594 -314.37151146 315.21042919 C-314.3714803 314.47429661 -314.37144914 313.73816403 -314.37141704 312.9797244 C-314.37125083 309.24862069 -314.37105274 305.51751698 -314.37084763 301.78641327 C-314.37080774 301.0453906 -314.37076785 300.30436792 -314.37072675 299.54089001 C-314.37064587 298.04236125 -314.37056228 296.54383249 -314.37047596 295.04530373 C-314.36925039 271.72931492 -314.38426422 248.41338427 -314.41162109 225.09741211 C-314.44233723 198.90752437 -314.45955387 172.71767485 -314.45769465 146.52776796 C-314.45754539 143.73550022 -314.45744797 140.94323248 -314.45738602 138.15096474 C-314.45736271 137.46342768 -314.4573394 136.77589063 -314.45731538 136.06751912 C-314.45725382 124.99968862 -314.47002959 113.93190858 -314.48725055 102.86409308 C-314.50419811 91.74200862 -314.50584436 80.61998325 -314.4930319 69.497889 C-314.48648749 63.47162848 -314.48643829 57.44555099 -314.5037384 51.41930771 C-314.51940884 45.90409906 -314.51666716 40.38921951 -314.49917014 34.87401918 C-314.49608694 32.8774028 -314.49978199 30.88076223 -314.51089029 28.88417437 C-314.52498374 26.17167235 -314.5144469 23.46032908 -314.49777794 20.74786663 C-314.5077143 19.97134795 -314.51765066 19.19482926 -314.52788812 18.39477971 C-314.45582971 12.85451844 -313.032523 8.65465105 -310 4 C-307.81640625 1.94140625 -307.81640625 1.94140625 -305.5625 0.5625 C-304.82128906 0.08941406 -304.08007812 -0.38367187 -303.31640625 -0.87109375 C-298.18427251 -3.37225168 -292.82356947 -3.1534849 -287.22167969 -3.16113281 C-286.34783127 -3.16609772 -285.47398285 -3.17106262 -284.57365417 -3.17617798 C-281.68971969 -3.19075328 -278.80584023 -3.19759416 -275.921875 -3.203125 C-273.91033935 -3.20888061 -271.89880371 -3.21463829 -269.88726807 -3.22039795 C-265.67077378 -3.23089501 -261.45429848 -3.23674603 -257.23779297 -3.24023438 C-251.8500516 -3.24571395 -246.4625636 -3.2697361 -241.07490158 -3.29820633 C-236.91918213 -3.31688355 -232.76352307 -3.32204103 -228.6077652 -3.32357025 C-226.62235378 -3.32658622 -224.63694316 -3.33457887 -222.65157318 -3.34775543 C-219.86615544 -3.36492114 -217.08134845 -3.36291003 -214.29589844 -3.35644531 C-213.48519394 -3.3656601 -212.67448944 -3.37487488 -211.83921814 -3.3843689 C-204.89655959 -3.33420931 -198.56498726 -2.11890252 -193.125 2.375 C-188.70270238 7.83783824 -186.89440866 12.00807607 -186.79467773 19.03198242 C-186.7647599 20.89357246 -186.7647599 20.89357246 -186.73423767 22.79277039 C-186.71725473 24.1470019 -186.70037587 25.50123473 -186.68359375 26.85546875 C-186.66301772 28.24124259 -186.64202108 29.62701025 -186.62062073 31.01277161 C-186.56546699 34.65740953 -186.51602826 38.30210346 -186.46777344 41.94683838 C-186.41750944 45.6670835 -186.36184896 49.38724743 -186.30664062 53.10742188 C-186.19914101 60.40487913 -186.09767793 67.70240397 -186 75 C-185.47253174 73.79053711 -184.94506348 72.58107422 -184.40161133 71.33496094 C-183.69111596 69.71801194 -182.98041142 68.10115486 -182.26953125 66.484375 C-181.92410278 65.6907959 -181.57867432 64.8972168 -181.22277832 64.07958984 C-167.87505522 33.80512561 -143.89416916 8.5021368 -113 -4 C-77.0669671 -17.44474218 -34.56487531 -17.50400737 0 0 Z " fill="#221F1E" transform="translate(877,1113)"/>
<path d="M0 0 C53.50611787 -1.7652885 113.65314542 10.60780138 153.93603516 47.91503906 C186.71122682 79.22643989 195.26322071 120.2096268 196.73291016 164.08691406 C196.89125627 171.31588711 196.87697549 178.54603403 196.87475586 185.77636719 C196.87779758 187.86506726 196.88132177 189.95376668 196.88528442 192.04246521 C196.89309397 196.49742198 196.89828776 200.95237103 196.90157509 205.40733337 C196.90755471 212.47149017 196.92415706 219.53559843 196.94291687 226.59973145 C196.94925185 229.03148649 196.9555775 231.46324155 196.96189404 233.89499664 C196.96505985 235.11166425 196.96822566 236.32833185 196.9714874 237.58186817 C197.01335576 253.99418644 197.04654771 270.40647941 197.05883789 286.81884766 C197.06724913 297.93811538 197.0898417 309.0572596 197.12819356 320.17646551 C197.14782956 326.03985829 197.1604 331.90306702 197.15535927 337.76649475 C197.15067325 343.28257552 197.16473157 348.7983072 197.19237137 354.3143177 C197.19921364 356.32161882 197.19948624 358.32895658 197.1921711 360.33625603 C197.07772475 395.30909182 209.35403123 419.09604024 229.43994141 446.82519531 C230.24614744 447.953947 231.05215017 449.08284393 231.85791016 450.21191406 C232.56173828 451.18386719 233.26556641 452.15582031 233.99072266 453.15722656 C237.17397445 458.51022845 238.38811577 463.73237275 237.43212891 469.84863281 C234.45496512 479.37888337 222.11200775 486.8645903 214.73291016 493.08691406 C213.84466553 493.83690674 213.84466553 493.83690674 212.93847656 494.60205078 C208.36452802 498.4633113 208.36452802 498.4633113 206.30126953 500.19897461 C203.0111872 502.97510866 199.79125587 505.81431749 196.60791016 508.71191406 C193.31690694 511.70662117 189.95437318 514.55367111 186.48291016 517.33691406 C182.00616801 520.95128095 177.79330258 524.77051061 173.60791016 528.71191406 C155.04742993 546.12331681 155.04742993 546.12331681 145.17041016 546.52441406 C135.53590941 545.96541573 130.47137516 540.42213234 123.73291016 534.08691406 C122.3636109 532.89284506 120.98905389 531.70476284 119.60791016 530.52441406 C107.00100428 519.45248075 97.46128093 506.43743791 88.14819336 492.57202148 C85.48433103 488.60796533 82.79859339 484.75834676 79.73291016 481.08691406 C79.10384766 481.72757813 78.47478516 482.36824219 77.82666016 483.02832031 C73.27067967 487.63233071 68.69206739 492.12473627 63.76416016 496.32910156 C62.34467652 497.55750087 60.95048959 498.81547235 59.57666016 500.09472656 C48.37627397 510.51108572 35.99898309 519.4903753 22.73291016 527.08691406 C22.16813965 527.41643066 21.60336914 527.74594727 21.02148438 528.08544922 C-20.35660729 552.07258248 -76.87785122 556.28823988 -122.765625 544.44189453 C-147.28911818 537.47930871 -167.34972256 525.04473991 -185.26708984 507.08691406 C-185.96318359 506.40242188 -186.65927734 505.71792969 -187.37646484 505.01269531 C-213.50442957 477.3294946 -221.74205254 436.55437368 -221.57958984 399.83691406 C-221.57776703 398.97940552 -221.57594421 398.12189697 -221.57406616 397.23840332 C-221.52898649 384.63547804 -221.11588337 372.41299313 -218.26708984 360.08691406 C-218.10080078 359.32185547 -217.93451172 358.55679687 -217.76318359 357.76855469 C-208.78760193 317.17897983 -184.74116909 280.9868731 -149.81396484 258.11425781 C-97.0096859 224.62376114 -34.29533416 218.35119339 26.48291016 211.77441406 C27.72762085 211.639133 28.97233154 211.50385193 30.25476074 211.36447144 C33.82504609 210.97872834 37.39597978 210.59980338 40.96728516 210.22363281 C42.03664307 210.10828186 43.10600098 209.99293091 44.20776367 209.87408447 C49.75229021 209.29966655 55.15882969 208.96561153 60.73291016 209.08691406 C62.09978368 165.89140644 62.09978368 165.89140644 46.86962891 126.79394531 C45.73291016 125.08691406 45.73291016 125.08691406 45.73291016 123.08691406 C45.07291016 123.08691406 44.41291016 123.08691406 43.73291016 123.08691406 C41.10791016 120.71191406 41.10791016 120.71191406 38.73291016 118.08691406 C38.73291016 117.42691406 38.73291016 116.76691406 38.73291016 116.08691406 C37.99685547 115.80589844 37.26080078 115.52488281 36.50244141 115.23535156 C34.01202806 114.20265548 31.77076723 113.02277041 29.42041016 111.71191406 C9.80620878 101.86109673 -14.24566495 102.280658 -34.83349609 108.77832031 C-52.63425733 115.56245571 -66.39458578 126.81450577 -74.89208984 144.14941406 C-76.97678338 148.91636802 -78.33618309 153.77080503 -79.70458984 158.77441406 C-81.82278782 166.43257885 -84.35633983 171.97836918 -90.70458984 177.02441406 C-96.99490058 179.63259169 -103.07371808 179.02178992 -109.64208984 178.23144531 C-110.54824539 178.12985107 -111.45440094 178.02825684 -112.38801575 177.92358398 C-115.34867056 177.59014314 -118.30780764 177.24480592 -121.26708984 176.89941406 C-124.36587527 176.54690012 -127.46499216 176.19741836 -130.56416321 175.84831238 C-132.67339143 175.61066825 -134.78251175 175.37206458 -136.89152527 175.13252258 C-143.81039344 174.34994718 -150.73267173 173.61804001 -157.66162109 172.93066406 C-158.99663162 172.79769173 -158.99663162 172.79769173 -160.35861206 172.66203308 C-163.75359109 172.32486898 -167.14864282 171.98888299 -170.54467773 171.6625061 C-192.32663438 169.56614535 -192.32663438 169.56614535 -200.26708984 165.08691406 C-200.26708984 164.42691406 -200.26708984 163.76691406 -200.26708984 163.08691406 C-200.92708984 163.08691406 -201.58708984 163.08691406 -202.26708984 163.08691406 C-205.9528298 158.66402612 -206.15429458 153.63226736 -206.26708984 148.08691406 C-205.90594047 144.73094104 -205.17359608 141.53939385 -204.32958984 138.27441406 C-203.99278198 136.92633667 -203.99278198 136.92633667 -203.64916992 135.55102539 C-192.46518653 92.7467016 -166.67362642 57.08208603 -128.89990234 34.03222656 C-125.38729912 31.98519928 -121.84805833 30.01083292 -118.26708984 28.08691406 C-117.63931641 27.74772949 -117.01154297 27.40854492 -116.36474609 27.05908203 C-106.31624897 21.68354043 -96.1302819 17.51118112 -85.26708984 14.08691406 C-84.48269531 13.83699707 -83.69830078 13.58708008 -82.89013672 13.32958984 C-62.20208347 6.83057391 -40.88832951 2.72036669 -19.26708984 1.08691406 C-18.56890137 1.03051758 -17.87071289 0.97412109 -17.15136719 0.91601562 C-11.43772315 0.46511399 -5.726307 0.21953105 0 0 Z M27.29541016 288.33691406 C26.29933746 288.43628265 26.29933746 288.43628265 25.28314209 288.53765869 C14.23478985 289.65170335 3.4819079 291.29282444 -7.26708984 294.08691406 C-7.98461426 294.26448242 -8.70213867 294.44205078 -9.44140625 294.625 C-20.49636662 297.39182256 -30.31930987 301.55423754 -40.26708984 307.08691406 C-41.25322266 307.61929687 -42.23935547 308.15167969 -43.25537109 308.70019531 C-60.43758192 318.72107948 -71.63201626 334.78435476 -77.37255859 353.52050781 C-83.25725301 376.98219341 -82.89472297 403.4851287 -71.09912109 425.04003906 C-63.66344474 437.40640911 -53.86592836 445.29385208 -39.92333984 449.43066406 C-39.04677734 449.64722656 -38.17021484 449.86378906 -37.26708984 450.08691406 C-36.51298828 450.27640625 -35.75888672 450.46589844 -34.98193359 450.66113281 C-16.0758096 453.62626593 2.07445529 448.93139292 17.74072266 437.98535156 C42.54474492 418.43232008 54.90951691 388.99849581 59.15478516 358.42675781 C60.99983633 342.67438541 60.85513393 326.92160095 60.79541016 311.08691406 C60.7903828 308.75097753 60.78582209 306.41503994 60.78173828 304.07910156 C60.77083594 298.41501569 60.7541967 292.75096995 60.73291016 287.08691406 C49.49553014 286.94144636 38.48635331 287.19580336 27.29541016 288.33691406 Z " fill="#221F1E" transform="translate(257.26708984375,1094.9130859375)"/>
<path d="M0 0 C0.82056885 0.66684814 0.82056885 0.66684814 1.65771484 1.34716797 C18.70625499 15.25457616 30.91078909 31.01515591 40 51 C40.47308594 52.03382812 40.94617187 53.06765625 41.43359375 54.1328125 C47.69311756 69.06986932 50.68071779 85.90115001 52 102 C52.08193918 102.96714778 52.16387836 103.93429556 52.24830055 104.93075085 C53.10112867 116.16105972 53.15213506 127.35424031 53.15771484 138.61254883 C53.16239363 140.75301719 53.16753892 142.89348458 53.17311096 145.03395081 C53.18431674 149.61559262 53.19278665 154.19722822 53.19923019 158.77887917 C53.20999446 166.03951499 53.23025985 173.30010562 53.25234985 180.56071472 C53.31399652 201.19776337 53.36825187 221.83480812 53.40136719 242.47192383 C53.41977015 253.89106452 53.44877077 265.31012807 53.4893719 276.72921199 C53.51033448 282.75690573 53.52588396 288.78450277 53.52817917 294.81223488 C53.53034221 300.48495937 53.54637871 306.15748204 53.57256889 311.83014488 C53.57969872 313.89794676 53.58189402 315.96577326 53.57846642 318.03358459 C53.5273219 354.78896217 65.99434134 381.15636502 87.625 410.25 C92.01377857 416.26836723 94.28493701 421.04841575 94.49609375 428.59375 C93.15968503 435.07585844 89.15525412 439.22281643 84.125 443.1875 C82.9590564 444.13991661 81.79371213 445.0930673 80.62890625 446.046875 C80.02965332 446.53220703 79.43040039 447.01753906 78.81298828 447.51757812 C75.85160205 449.93900785 72.95924349 452.43943581 70.0625 454.9375 C68.89216044 455.94298001 67.72158613 456.94818685 66.55078125 457.953125 C65.67607178 458.70432617 65.67607178 458.70432617 64.78369141 459.47070312 C62.97679712 461.01989363 61.16660067 462.56514164 59.35546875 464.109375 C53.23607517 469.3310157 47.17266401 474.59778827 41.2109375 480 C38.60519611 482.35713709 35.97590046 484.68358219 33.3203125 486.984375 C31.45038867 488.60875328 29.59469022 490.24654206 27.7421875 491.890625 C9.80076691 507.7072744 9.80076691 507.7072744 -0.3828125 507.6015625 C-8.00786918 505.84893753 -13.23002227 501.37317065 -18.6875 496 C-19.96072211 494.76926154 -21.23542865 493.54005663 -22.51171875 492.3125 C-23.10919922 491.73580566 -23.70667969 491.15911133 -24.32226562 490.56494141 C-26.44899328 488.58119224 -28.72145781 486.80533709 -31 485 C-33.5002291 482.47584527 -35.73601192 479.73654726 -38 477 C-39.18916016 475.56720703 -39.18916016 475.56720703 -40.40234375 474.10546875 C-48.68988708 463.92163628 -55.84141382 452.99359926 -63 442 C-68.26980879 446.40378791 -73.09727733 451.07496789 -77.86328125 456.0234375 C-80 458 -80 458 -82 458 C-82 458.66 -82 459.32 -82 460 C-84.02585512 461.7494641 -86.05903512 463.38331082 -88.1875 465 C-89.13991577 465.73259033 -89.13991577 465.73259033 -90.11157227 466.47998047 C-91.4314871 467.49494664 -92.75304523 468.50777906 -94.07617188 469.51855469 C-95.83260819 470.87109981 -97.56822866 472.24504087 -99.296875 473.6328125 C-139.4761281 505.69397492 -191.50483135 514.7867302 -241.78125 509.78125 C-264.2403472 507.16519655 -285.87961013 500.14470957 -305 488 C-306.41152344 487.12601563 -306.41152344 487.12601563 -307.8515625 486.234375 C-312.37712278 483.34810436 -312.37712278 483.34810436 -314 482 C-314 481.34 -314 480.68 -314 480 C-314.55300781 479.76152344 -315.10601563 479.52304688 -315.67578125 479.27734375 C-318.54665315 477.69957045 -320.75309811 475.75238294 -323.1875 473.5625 C-324.50814453 472.38880859 -324.50814453 472.38880859 -325.85546875 471.19140625 C-328 469 -328 469 -329 466 C-329.66 466 -330.32 466 -331 466 C-345.86600375 450.63875411 -355.0937993 428.50165569 -360 408 C-360.43892578 406.25589844 -360.43892578 406.25589844 -360.88671875 404.4765625 C-371.4180058 359.57731916 -365.578881 308.5689387 -341.70703125 268.84863281 C-339.30727383 265.09948499 -336.6962568 261.54256678 -334 258 C-333.01698234 256.5651307 -332.03710489 255.12809673 -331.0625 253.6875 C-330.381875 252.800625 -329.70125 251.91375 -329 251 C-328.34 251 -327.68 251 -327 251 C-326.6596875 250.1646875 -326.6596875 250.1646875 -326.3125 249.3125 C-324.63021506 246.34847415 -322.43380906 244.38912047 -320 242 C-319.11183594 241.07703125 -318.22367188 240.1540625 -317.30859375 239.203125 C-307.08323651 228.62749905 -295.76408534 220.33612229 -283 213 C-282.07888428 212.46656982 -282.07888428 212.46656982 -281.13916016 211.92236328 C-231.84201476 183.70451281 -172.27404576 178.59103045 -116.875 172.625 C-115.0248378 172.42487305 -115.0248378 172.42487305 -113.13729858 172.22070312 C-109.61035115 171.84179022 -106.08273909 171.47003945 -102.5546875 171.1015625 C-100.9791938 170.93329453 -100.9791938 170.93329453 -99.37187195 170.7616272 C-93.87959861 170.19934498 -88.52086549 169.88403962 -83 170 C-83.06997808 164.08124615 -83.15843885 158.16312681 -83.26245117 152.24487305 C-83.29525901 150.24071428 -83.32342051 148.23647287 -83.34643555 146.23217773 C-83.6278215 122.35029365 -84.92749554 99.83156751 -101.5 81.1875 C-116.51575202 68.04871699 -136.53080635 63.92278749 -156.08203125 65.21484375 C-176.83549173 67.09944668 -196.13341456 75.22800754 -209.921875 91.23046875 C-216.87337733 100.41198842 -221.20300296 111.40722877 -224 122.5 C-225.84167697 129.31498185 -228.36396223 134.3197686 -234.60302734 137.92675781 C-242.70785158 141.50994326 -251.75435999 139.41466065 -260.25 138.375 C-262.00189363 138.17520615 -263.75401407 137.97739175 -265.50634766 137.78149414 C-269.02321231 137.38637699 -272.53879777 136.98192871 -276.05371094 136.56982422 C-281.64047082 135.91932214 -287.23327216 135.34943295 -292.83007812 134.79174805 C-297.43466987 134.33160599 -302.03617795 133.84430083 -306.63769531 133.35449219 C-308.9281728 133.11300415 -311.21922184 132.87689081 -313.51074219 132.64550781 C-316.92553438 132.29899707 -320.33773322 131.93295878 -323.75 131.5625 C-324.75595215 131.46445068 -325.7619043 131.36640137 -326.79833984 131.26538086 C-334.11612999 130.44034199 -340.84400888 128.83229972 -346.4375 123.8125 C-350.68369861 116.1693425 -350.05378537 109.38584909 -348.0625 101.125 C-347.83087158 100.12267334 -347.59924316 99.12034668 -347.3605957 98.08764648 C-343.60864534 82.52413743 -337.67928928 68.01979033 -330 54 C-329.65211426 53.36078613 -329.30422852 52.72157227 -328.94580078 52.06298828 C-324.25398259 43.55759155 -318.92651631 36.07029887 -312.48046875 28.8046875 C-310.85667534 26.96865023 -309.29253375 25.07765501 -307.80078125 23.1328125 C-307.20652344 22.42898438 -306.61226562 21.72515625 -306 21 C-305.34 21 -304.68 21 -304 21 C-304 20.34 -304 19.68 -304 19 C-303.34 19 -302.68 19 -302 19 C-302 18.34 -302 17.68 -302 17 C-272.3437901 -11.08261509 -232.61825089 -26.8411302 -193 -34 C-192.1754834 -34.15162598 -191.3509668 -34.30325195 -190.50146484 -34.45947266 C-129.54605671 -45.38509499 -49.89693888 -41.21921038 0 0 Z M-111.3125 248.8125 C-112.91605347 248.94833496 -112.91605347 248.94833496 -114.55200195 249.08691406 C-149.92736979 252.24736375 -184.26655839 260.85113724 -208.3125 288.75 C-223.03983642 308.16191537 -226.53396778 334.90564759 -223.50390625 358.5390625 C-220.92290628 374.90742227 -214.24641762 391.42142481 -201 402 C-186.51557039 411.44170227 -169.95878972 414.40441278 -152.9453125 411.38671875 C-131.37100292 406.20979668 -114.21768104 392.04018508 -102.66015625 373.28125 C-84.49010712 342.64819385 -82.45003255 309.2767398 -82.8125 274.375 C-82.82760427 271.79558091 -82.84128231 269.21615306 -82.85351562 266.63671875 C-82.88599652 260.42428236 -82.93572195 254.21218477 -83 248 C-92.4781961 247.91172897 -101.85977883 248.00498499 -111.3125 248.8125 Z " fill="#221F1E" transform="translate(1657,1134)"/>
<path d="M0 0 C0.74475586 0.1556543 1.48951172 0.31130859 2.25683594 0.47167969 C24.81092212 5.40815727 47.12347647 17.02602093 63 34 C63 34.66 63 35.32 63 36 C63.66 36 64.32 36 65 36 C66.80165629 38.02307197 68.47275893 40.04670954 70.125 42.1875 C70.61637451 42.82171875 71.10774902 43.4559375 71.61401367 44.109375 C100.02625977 81.34463907 104.1564743 131.32778019 104.14717102 176.70890808 C104.15048279 178.20835774 104.15421103 179.70780652 104.1583125 181.20725423 C104.16818818 185.27323117 104.1720254 189.33919337 104.17470181 193.40518057 C104.17864743 197.81063355 104.18822094 202.21607531 104.19691467 206.621521 C104.21654008 217.2203988 104.2267185 227.81927737 104.23564246 238.41816875 C104.24004039 243.41777527 104.24540251 248.41738076 104.25063133 253.41698647 C104.26761474 270.04166411 104.28211436 286.66634114 104.28938007 303.29102612 C104.29128965 307.59025765 104.29321006 311.88948919 104.29516602 316.1887207 C104.29564976 317.25714525 104.2961335 318.32556979 104.2966319 319.42637084 C104.30495399 336.78065974 104.33034037 354.13488021 104.36274669 371.48913916 C104.39578608 389.32808346 104.41382521 407.16699286 104.41702431 425.00596792 C104.41919017 435.01385569 104.4279522 445.02164305 104.45348549 455.02950096 C104.47514811 463.5390377 104.48326408 472.04844953 104.47351871 480.55801072 C104.46896377 484.8991161 104.47093013 489.23996346 104.49028015 493.58103371 C104.50783596 497.55367516 104.50697646 501.52586886 104.49138286 505.49851457 C104.48899547 506.93619791 104.4933887 508.37391166 104.50521151 509.81154837 C104.60787071 523.11734222 104.60787071 523.11734222 100 528 C93.18671781 534.51705253 87.22686452 535.29978684 78.20605469 535.30639648 C77.23613083 535.31472 76.26620697 535.32304352 75.26689148 535.33161926 C72.06851149 535.35566379 68.87033572 535.36448508 65.671875 535.37109375 C63.43996115 535.38006494 61.2080479 535.38918688 58.97613525 535.39845276 C54.29901673 535.41493071 49.62196969 535.4226406 44.94482422 535.42553711 C38.96850509 535.4309167 32.99286319 535.46858521 27.01673508 535.51428127 C22.40630678 535.54410944 17.79604036 535.55126194 13.18552399 535.55226326 C10.98321687 535.5564548 8.7809088 535.56884596 6.5786972 535.58978081 C3.48914128 535.61681121 0.40113949 535.61183434 -2.68847656 535.59936523 C-3.58752213 535.61419952 -4.48656769 535.62903381 -5.41285706 535.64431763 C-11.96113497 535.56953152 -17.80842175 534.16070269 -23 530 C-28.68492007 523.73336316 -28.70838402 517.38149835 -28.6257782 509.24757385 C-28.63272274 507.97205861 -28.63966729 506.69654336 -28.64682227 505.38237613 C-28.66538342 501.85698353 -28.65305189 498.33228229 -28.635553 494.80690944 C-28.62214176 490.99804543 -28.63767503 487.18928536 -28.64971924 483.38043213 C-28.66673174 476.78074835 -28.66575094 470.18126541 -28.65271568 463.58157539 C-28.63402066 454.01242007 -28.6448906 444.44347157 -28.66319225 434.87432372 C-28.69234075 419.31195429 -28.70069695 403.74964896 -28.69458008 388.18725586 C-28.68873476 373.13451402 -28.68762228 358.08179381 -28.6965332 343.02905273 C-28.69707577 342.10438599 -28.69761835 341.17971926 -28.69817736 340.22703231 C-28.70436055 330.10380702 -28.71312788 319.98058713 -28.72552967 309.85736752 C-28.7271684 308.51722052 -28.7271684 308.51722052 -28.72884024 307.14999984 C-28.7332623 303.5749904 -28.73773728 299.99998109 -28.74256585 296.42497217 C-28.75660163 286.01263302 -28.76277825 275.60036609 -28.75402997 265.18801986 C-28.74879723 258.63798644 -28.75027444 252.08797688 -28.75673302 245.53794462 C-28.76013832 241.77384427 -28.76038061 238.00981869 -28.7515049 234.24572563 C-27.8002972 180.92662288 -27.8002972 180.92662288 -50 134 C-61.53706691 123.51017063 -76.0468303 119.47325015 -91.45703125 120.15234375 C-102.83538095 121.59699516 -112.87373863 125.59122886 -121.9765625 132.546875 C-124 134 -124 134 -127 135 C-127.33 135.99 -127.66 136.98 -128 138 C-128.66 138 -129.32 138 -130 138 C-130.26554687 138.57492187 -130.53109375 139.14984375 -130.8046875 139.7421875 C-132.04983872 142.0941398 -133.50156384 144.01830842 -135.125 146.125 C-153.42241607 172.2206911 -157.16819902 207.64828454 -157.13803101 238.63961792 C-157.14085229 239.84226732 -157.14367357 241.04491673 -157.14658034 242.28401005 C-157.15341252 245.58179346 -157.15594753 248.87954644 -157.15663147 252.17733574 C-157.15848841 255.74919628 -157.1661043 259.32104506 -157.17311096 262.89289856 C-157.18458201 269.06957728 -157.19285425 275.24625335 -157.19923019 281.4229393 C-157.20960175 291.18815638 -157.23017383 300.95333999 -157.25234985 310.71853638 C-157.25982733 314.06545056 -157.26724129 317.41236489 -157.27463722 320.75927925 C-157.27741307 322.01348563 -157.27741307 322.01348563 -157.280245 323.29302951 C-157.30112814 332.78844874 -157.31998066 342.2838716 -157.33789062 351.77929688 C-157.33952881 352.64635931 -157.34116699 353.51342175 -157.34285481 354.4067588 C-157.36918447 368.48205911 -157.38780815 382.55736202 -157.40448253 396.63267659 C-157.42190126 411.10296159 -157.4507367 425.57319514 -157.4893719 440.04343903 C-157.51275451 448.96002509 -157.52676489 457.87652733 -157.52869953 466.7931443 C-157.53080842 472.89777348 -157.54373351 479.00231909 -157.56517886 485.10691075 C-157.57720539 488.62783041 -157.5843607 492.14858413 -157.57846642 495.66952324 C-157.57218958 499.48722226 -157.58899398 503.30462262 -157.60800171 507.12228394 C-157.60247201 508.23307434 -157.59694232 509.34386474 -157.59124506 510.48831546 C-157.6625763 518.77188583 -159.02010468 524.84925053 -165 531 C-169.69956963 533.74141562 -173.7736277 535.11795696 -179.18560791 535.14044189 C-180.42601585 535.14900711 -180.42601585 535.14900711 -181.69148254 535.15774536 C-182.5902562 535.15886322 -183.48902985 535.15998108 -184.41503906 535.16113281 C-185.36837631 535.16609772 -186.32171356 535.17106262 -187.30393982 535.17617798 C-190.45784223 535.19078253 -193.61169433 535.19759912 -196.765625 535.203125 C-198.9603475 535.20887827 -201.15507 535.21463599 -203.34979248 535.22039795 C-207.95308669 535.23090337 -212.55636346 535.23674891 -217.15966797 535.24023438 C-223.04861546 535.2457152 -228.9373313 535.26973656 -234.82620621 535.29820633 C-239.36105007 535.31686172 -243.89583848 535.32203988 -248.43071747 535.32357025 C-250.60116593 535.32659122 -252.77161353 535.33460093 -254.94202423 535.34775543 C-257.98398786 535.36487478 -261.0253901 535.36292106 -264.06738281 535.35644531 C-264.95805954 535.3656601 -265.84873627 535.37487488 -266.7664032 535.3843689 C-273.6144025 535.33887052 -278.78713155 533.89851318 -284.75 530.375 C-290.17472633 524.64889998 -291.59634997 517.81290981 -291.50336456 510.15308285 C-291.50917833 509.3059733 -291.51499209 508.45886375 -291.52098203 507.58608422 C-291.53553597 504.75826255 -291.5217184 501.93131515 -291.50793457 499.10350037 C-291.51254529 497.05140413 -291.51889935 494.99931119 -291.52684355 492.94722515 C-291.5435362 487.31633195 -291.53529065 481.68571005 -291.52289867 476.05481589 C-291.51385039 469.979081 -291.52781679 463.90339285 -291.53881836 457.82766724 C-291.55558207 446.61636569 -291.55412247 435.40515096 -291.54317249 424.19385122 C-291.53310673 413.83694342 -291.53048511 403.48006728 -291.53526306 393.12315559 C-291.5355686 392.4359209 -291.53587414 391.7486862 -291.53618894 391.04062622 C-291.53743431 388.25086515 -291.53870791 385.46110409 -291.540028 382.67134306 C-291.55226107 356.50712445 -291.54117455 330.34296087 -291.51964041 304.17875076 C-291.50065618 280.93595085 -291.5023586 257.6932386 -291.52148438 234.45043945 C-291.54290438 208.33229718 -291.5513956 182.2142035 -291.53903532 156.09605366 C-291.53775246 153.311712 -291.5365011 150.52737032 -291.53526306 147.74302864 C-291.53494675 147.05746074 -291.53463044 146.37189284 -291.53430455 145.66555015 C-291.52975547 135.31472901 -291.53507418 124.96394302 -291.54518127 114.61312675 C-291.55661598 102.84405645 -291.55337867 91.07506986 -291.5320583 79.30600601 C-291.52153702 73.29997733 -291.51744464 67.2941267 -291.53065491 61.28809929 C-291.54256188 55.79154211 -291.53604389 50.29532824 -291.5147447 44.79880226 C-291.51027152 42.80903977 -291.51256089 40.81924836 -291.52224785 38.82950442 C-291.53440021 36.12628176 -291.5219484 33.42423712 -291.50336456 30.72107601 C-291.51272923 29.94730506 -291.52209389 29.17353412 -291.53174233 28.37631556 C-291.45566305 22.84491502 -290.02577892 18.6478136 -287 14 C-284.81640625 11.94140625 -284.81640625 11.94140625 -282.5625 10.5625 C-281.82128906 10.08941406 -281.08007812 9.61632813 -280.31640625 9.12890625 C-275.18427251 6.62774832 -269.82356947 6.8465151 -264.22167969 6.83886719 C-263.34783127 6.83390228 -262.47398285 6.82893738 -261.57365417 6.82382202 C-258.68971969 6.80924672 -255.80584023 6.80240584 -252.921875 6.796875 C-250.91033935 6.79111939 -248.89880371 6.78536171 -246.88726807 6.77960205 C-242.67077378 6.76910499 -238.45429848 6.76325397 -234.23779297 6.75976562 C-228.8500516 6.75428605 -223.4625636 6.7302639 -218.07490158 6.70179367 C-213.91918213 6.68311645 -209.76352307 6.67795897 -205.6077652 6.67642975 C-203.62235378 6.67341378 -201.63694316 6.66542113 -199.65157318 6.65224457 C-196.86615544 6.63507886 -194.08134845 6.63708997 -191.29589844 6.64355469 C-190.48519394 6.6343399 -189.67448944 6.62512512 -188.83921814 6.6156311 C-182.29167166 6.66293607 -175.809874 7.70773437 -170.625 11.9375 C-170.08875 12.618125 -169.5525 13.29875 -169 14 C-168.443125 14.680625 -167.88625 15.36125 -167.3125 16.0625 C-164.68162977 19.94616557 -164.84969529 23.475291 -164.79467773 28.04174805 C-164.78477814 28.75419678 -164.77487854 29.46664551 -164.76467896 30.20068359 C-164.733105 32.55432824 -164.70832281 34.90799306 -164.68359375 37.26171875 C-164.66302067 38.89411441 -164.64202411 40.52650479 -164.62062073 42.15888977 C-164.56543656 46.45455646 -164.51601117 50.75027094 -164.46777344 55.04602051 C-164.41753173 59.42981212 -164.3618596 63.81353438 -164.30664062 68.19726562 C-164.19910375 76.79811843 -164.09764886 85.39902928 -164 94 C-163.74994705 93.43701706 -163.4998941 92.87403412 -163.24226379 92.29399109 C-162.08754952 89.69861571 -160.92856766 87.10516667 -159.76953125 84.51171875 C-159.37640747 83.62641479 -158.98328369 82.74111084 -158.57824707 81.82897949 C-151.07174348 65.06175601 -140.95580876 45.32623827 -127 33 C-126.34 33 -125.68 33 -125 33 C-124.34 31.68 -123.68 30.36 -123 29 C-122.34 29 -121.68 29 -121 29 C-120.67 28.01 -120.34 27.02 -120 26 C-87.11353113 -2.17520508 -41.59673869 -8.85905788 0 0 Z " fill="#221F1E" transform="translate(3029,1103)"/>
<path d="M0 0 C1.82535906 1.63444665 3.62946983 3.28899797 5.42578125 4.95532227 C6.12461426 5.60355957 6.82344727 6.25179688 7.54345703 6.91967773 C23.53421602 21.93705573 36.85332918 38.7255502 47.42578125 57.95532227 C47.84778809 58.70797363 48.26979492 59.460625 48.70458984 60.23608398 C93.27851994 140.1357753 99.6919464 243.60455237 75.42578125 330.95532227 C64.20069276 369.72599489 45.67091714 406.15613551 18.2109375 435.92407227 C16.38132187 437.83213677 16.38132187 437.83213677 15.42578125 439.95532227 C14.76578125 439.95532227 14.10578125 439.95532227 13.42578125 439.95532227 C13.17828125 440.57407227 12.93078125 441.19282227 12.67578125 441.83032227 C11.21949486 444.30600913 10.04765619 444.90657229 7.42578125 445.95532227 C7.42578125 446.61532227 7.42578125 447.27532227 7.42578125 447.95532227 C5.87689623 449.37238728 4.25816591 450.71341723 2.61328125 452.01782227 C-1.80427177 455.52926105 -1.80427177 455.52926105 -6.12109375 459.16235352 C-36.64814553 485.47060466 -80.54354403 500.96792638 -120.57421875 501.95532227 C-121.39873535 501.98110352 -122.22325195 502.00688477 -123.07275391 502.03344727 C-179.79577375 503.63268659 -229.68813093 485.11358004 -271.19140625 446.52172852 C-276.81558663 441.06296521 -281.72413133 435.10204897 -286.57421875 428.95532227 C-287.36699219 427.97950195 -288.15976563 427.00368164 -288.9765625 425.99829102 C-306.07511749 404.52380252 -318.28076157 379.66062935 -327.57421875 353.95532227 C-327.86135742 353.17092773 -328.14849609 352.3865332 -328.44433594 351.57836914 C-338.58770784 323.60762345 -344.28992294 293.58607126 -346.57421875 263.95532227 C-346.70231934 262.29847412 -346.70231934 262.29847412 -346.83300781 260.6081543 C-347.60470166 249.59837888 -347.81695384 238.61535626 -347.82421875 227.58032227 C-347.82489349 226.64734314 -347.82556824 225.71436401 -347.82626343 224.75311279 C-347.75398836 161.1740155 -335.22281799 91.19967381 -296.57421875 38.95532227 C-295.81882812 37.92922852 -295.0634375 36.90313477 -294.28515625 35.84594727 C-289.78438977 29.82956123 -285.04030282 24.01271388 -280.19921875 18.26782227 C-279.44946777 17.36700928 -279.44946777 17.36700928 -278.68457031 16.44799805 C-276.15618902 13.49025288 -274.04575766 11.62991923 -270.57421875 9.95532227 C-269.86541533 8.64390321 -269.1997232 7.30845434 -268.57421875 5.95532227 C-266.12920398 3.3755429 -263.32917945 1.19613789 -260.57421875 -1.04467773 C-259.63191406 -1.81166992 -258.68960938 -2.57866211 -257.71875 -3.36889648 C-244.75591762 -13.71613197 -230.66759259 -22.18872777 -215.57421875 -29.04467773 C-214.83252441 -29.38241211 -214.09083008 -29.72014648 -213.32666016 -30.06811523 C-145.08238553 -60.5453065 -56.58669633 -49.35888411 0 0 Z M-176.8515625 76.53735352 C-190.6503546 93.77994672 -196.66322549 115.23222023 -200.32421875 136.64282227 C-200.62235474 138.37568481 -200.62235474 138.37568481 -200.92651367 140.14355469 C-201.55276724 144.07260461 -202.09308749 148.0063717 -202.57421875 151.95532227 C-202.66884399 152.72600037 -202.76346924 153.49667847 -202.86096191 154.29071045 C-205.10974591 173.64424232 -204.88230694 193.09184695 -204.83496094 212.54370117 C-204.82360034 217.24729425 -204.83032113 221.95066016 -204.84183884 226.65424538 C-204.89499569 252.21350865 -204.65451385 277.74647282 -200.82421875 303.08032227 C-200.6550293 304.21663086 -200.48583984 305.35293945 -200.31152344 306.52368164 C-195.71980478 336.03138695 -188.56027677 371.128047 -162.90625 389.90844727 C-149.32918716 398.6300153 -133.12640527 401.19129133 -117.40844727 397.77050781 C-106.51462061 395.14307557 -96.75689778 390.80199757 -88.57421875 382.95532227 C-88.57421875 382.29532227 -88.57421875 381.63532227 -88.57421875 380.95532227 C-87.91421875 380.95532227 -87.25421875 380.95532227 -86.57421875 380.95532227 C-86.57421875 380.29532227 -86.57421875 379.63532227 -86.57421875 378.95532227 C-85.91421875 378.95532227 -85.25421875 378.95532227 -84.57421875 378.95532227 C-52.57767195 342.9808264 -54.38298675 282.44440201 -54.38891602 237.53857422 C-54.38899669 234.38128864 -54.38213576 231.22414998 -54.3684082 228.06689453 C-54.25556797 201.66770586 -54.79484732 175.28694097 -58.32421875 149.08032227 C-58.49195801 147.81551025 -58.65969727 146.55069824 -58.83251953 145.24755859 C-60.56295695 132.9280504 -63.20691264 120.9258404 -66.57421875 108.95532227 C-66.81398438 108.09567871 -67.05375 107.23603516 -67.30078125 106.3503418 C-72.42302265 88.44712306 -81.08090183 72.64337375 -97.57421875 62.95532227 C-123.93132371 49.30739668 -157.11008901 54.15465373 -176.8515625 76.53735352 Z " fill="#221F1E" transform="translate(2579.57421875,1146.044677734375)"/>
<path d="M0 0 C0.65891235 0.00215515 1.31782471 0.0043103 1.9967041 0.00653076 C31.69230474 0.1620663 57.40325201 9.50994683 80.3125 28.3125 C81.08980469 28.86164063 81.86710937 29.41078125 82.66796875 29.9765625 C83.21066406 30.41742187 83.75335938 30.85828125 84.3125 31.3125 C84.3125 31.9725 84.3125 32.6325 84.3125 33.3125 C85.3025 33.6425 86.2925 33.9725 87.3125 34.3125 C87.3125 34.9725 87.3125 35.6325 87.3125 36.3125 C87.9725 36.3125 88.6325 36.3125 89.3125 36.3125 C99.20528932 46.75962665 107.93839566 59.44718179 114.3125 72.3125 C114.76423584 73.19832764 114.76423584 73.19832764 115.22509766 74.10205078 C121.16007382 85.78607397 125.42475269 97.81169886 129.3125 110.3125 C129.55258789 109.78108398 129.79267578 109.24966797 130.04003906 108.70214844 C140.7757122 85.1200254 153.40558185 64.48492694 171.1953125 45.640625 C173.32868424 43.50588681 173.32868424 43.50588681 174.3125 41.3125 C174.9725 41.3125 175.6325 41.3125 176.3125 41.3125 C176.3125 40.6525 176.3125 39.9925 176.3125 39.3125 C197.3548236 16.25334027 231.78199099 2.02919087 262.3125 0.3125 C302.72318493 -1.37730573 335.38687986 10.08141046 365.3125 37.3125 C365.98796875 37.91578125 366.6634375 38.5190625 367.359375 39.140625 C405.94275511 75.51924053 413.41857743 131.7295722 415.21622372 181.87739348 C415.53855112 193.37793041 415.47027839 204.88976486 415.47254276 216.39408576 C415.47442275 220.52002247 415.48198301 224.64594993 415.48867798 228.7718811 C415.50213201 237.74816774 415.50826277 246.72444984 415.51268864 255.70074487 C415.51546761 261.31351517 415.51970727 266.9262838 415.52419281 272.53905296 C415.53635802 288.1105059 415.5466695 303.68195752 415.5500679 319.25341511 C415.55028747 320.24539861 415.55050703 321.23738211 415.55073325 322.25942571 C415.55095153 323.25357574 415.55116981 324.24772577 415.5513947 325.27200156 C415.55183815 327.28607071 415.55228471 329.30013985 415.55273438 331.31420898 C415.5529558 332.31322556 415.55317723 333.31224214 415.55340537 334.34153195 C415.55736431 350.57475503 415.57486385 366.80793353 415.5980939 383.04113934 C415.62180605 399.74685438 415.63426933 416.45254698 415.63543582 433.15827912 C415.63635152 442.52286009 415.64207949 451.88738257 415.66025543 461.2519474 C415.67565304 469.21193219 415.68077806 477.17184032 415.67251733 485.13183717 C415.66861253 489.18977181 415.66953291 493.247552 415.68357468 497.30546761 C415.69632022 501.02265062 415.69511063 504.7395632 415.68298396 508.45674589 C415.68010509 510.43139088 415.6919564 512.40604059 415.70440602 514.38064843 C415.66266596 521.88784931 415.40421431 529.24760685 410.69921875 535.43359375 C409.85810547 536.08521484 409.85810547 536.08521484 409 536.75 C408.44699219 537.20246094 407.89398437 537.65492188 407.32421875 538.12109375 C401.40798125 541.62488489 395.61379529 541.61967796 388.9453125 541.61328125 C387.45498001 541.61970894 387.45498001 541.61970894 385.93453979 541.62626648 C383.83836629 541.6319944 381.74217292 541.63252141 379.64599609 541.62817383 C376.45505511 541.62501737 373.26504505 541.64848067 370.07421875 541.67382812 C368.03125116 541.67610176 365.9882811 541.67680432 363.9453125 541.67578125 C362.52619064 541.68959587 362.52619064 541.68959587 361.07839966 541.70368958 C353.02705533 541.64802807 346.29308881 540.12221485 340.3125 534.3125 C336.93667342 529.48989061 336.18672616 525.6342901 336.19224548 519.82287598 C336.19087113 518.70007579 336.18949678 517.5772756 336.18808079 516.42045116 C336.19167575 515.18664369 336.19527071 513.95283621 336.19897461 512.68164062 C336.19882575 511.37082425 336.19867689 510.06000788 336.19852352 508.7094698 C336.19822757 505.06703957 336.20416897 501.42464185 336.21109343 497.78221917 C336.21746143 493.8539754 336.21803625 489.92573044 336.2192688 485.9974823 C336.22215872 479.18389363 336.22860458 472.37031576 336.23733521 465.55673218 C336.24990179 455.67491966 336.25596966 445.79311115 336.26026857 435.91129196 C336.26734266 419.83880737 336.27814422 403.76632778 336.29199219 387.69384766 C336.29282 386.73150455 336.29364781 385.76916145 336.29450071 384.77765644 C336.30123441 376.9832377 336.30814934 369.18881913 336.31510353 361.3944006 C336.32114934 354.61628666 336.32713282 347.83817268 336.33300781 341.06005859 C336.33383594 340.10616721 336.33466407 339.15227583 336.33551729 338.16947865 C336.34926924 322.1863229 336.35899506 306.20316707 336.36591816 290.22000694 C336.37036947 280.3835734 336.37834685 270.54715522 336.39106297 260.71072882 C336.39957835 253.94292094 336.40439979 247.17511652 336.40648818 240.40730363 C336.40781515 236.51933664 336.41070221 232.6313895 336.41824722 228.74342918 C336.44534212 214.19759444 336.38746847 199.66047998 335.91967773 185.12036133 C335.88763024 184.02754443 335.85558275 182.93472754 335.82256413 181.80879498 C335.20588417 165.1816918 332.82791294 148.0650078 327.3125 132.3125 C326.93222656 131.21164062 326.55195313 130.11078125 326.16015625 128.9765625 C320.52620541 113.53269726 312.21517381 99.69073763 299.3125 89.3125 C299.3125 88.6525 299.3125 87.9925 299.3125 87.3125 C298.73886719 87.04824219 298.16523438 86.78398438 297.57421875 86.51171875 C295.19610394 85.25078396 293.25297106 83.77088204 291.125 82.125 C277.86200427 72.73283414 261.50852915 67.85994133 245.3125 69.3125 C225.84957867 72.95662144 209.63625369 81.79514862 195.4921875 95.40625 C193.3125 97.3125 193.3125 97.3125 191.3125 97.3125 C191.08304688 97.86808594 190.85359375 98.42367188 190.6171875 98.99609375 C188.95529714 101.9466955 186.82454065 103.97066195 184.4375 106.375 C166.01960639 125.82771024 155.09876778 152.33379361 149.625 178.1875 C149.32094238 179.57412842 149.32094238 179.57412842 149.01074219 180.98876953 C144.80605232 202.12804089 145.015244 223.94676286 145.05446196 245.40439701 C145.05908316 249.18872879 145.05191169 252.97304231 145.04615784 256.75737 C145.03760924 263.28416299 145.03569577 269.81092891 145.03810501 276.33772659 C145.04122896 285.78149899 145.02947511 295.22521257 145.01355521 304.66897003 C144.98772122 320.00847475 144.96763179 335.34797951 144.95410156 350.6875 C144.95329119 351.60160748 144.95248082 352.51571497 144.9516459 353.45752268 C144.94038968 366.47088825 144.93513354 379.48424952 144.93225877 392.49761932 C144.93205478 393.41718424 144.93185079 394.33674916 144.93164062 395.28417969 C144.93144069 396.2026094 144.93124075 397.12103912 144.93103476 398.06730004 C144.92730298 413.37869578 144.9082381 428.69002663 144.87654626 444.00138986 C144.85765358 453.42551222 144.85165647 462.84946807 144.86236344 472.27360414 C144.86867817 478.71732658 144.86065457 485.16092921 144.84130932 491.60462536 C144.83062501 495.32010284 144.82648052 499.0352893 144.83978081 502.75076485 C144.85405378 506.77814871 144.83751553 510.80482211 144.81802368 514.83218384 C144.82714834 516.00482587 144.836273 517.17746791 144.84567416 518.38564456 C144.77542332 525.8263984 143.84963372 530.3592329 138.78515625 536.01953125 C132.14491843 541.22503625 127.00875054 541.62091501 118.82421875 541.61328125 C117.80705276 541.61756638 116.78988678 541.6218515 115.74189758 541.62626648 C113.5926691 541.63200121 111.4434212 541.63251636 109.29418945 541.62817383 C106.02195717 541.62502115 102.75063575 541.64845903 99.47851562 541.67382812 C97.3854178 541.67610207 95.29231756 541.67680417 93.19921875 541.67578125 C92.22812668 541.684991 91.25703461 541.69420074 90.2565155 541.70368958 C83.43363002 541.6577073 77.42961025 540.96444971 72.03515625 536.375 C71.48730469 535.694375 70.93945312 535.01375 70.375 534.3125 C69.80910156 533.631875 69.24320313 532.95125 68.66015625 532.25 C66.48646982 529.12493197 66.18606909 526.50538056 66.1738348 522.808815 C66.16836036 521.88042612 66.16288591 520.95203723 66.15724558 519.99551535 C66.15577842 518.46276394 66.15577842 518.46276394 66.15428162 516.89904785 C66.14934364 515.81453669 66.14440566 514.73002553 66.13931805 513.61265039 C66.12389485 509.9585654 66.1155685 506.30449805 66.10717773 502.65039062 C66.09760105 500.03681787 66.0875911 497.42324668 66.07717896 494.80967712 C66.05254235 488.42754965 66.03315023 482.04541629 66.01542621 475.6632663 C65.99447253 468.20242399 65.96801444 460.74160423 65.94125474 453.28078085 C65.89352257 439.92889795 65.8503022 426.57700433 65.80981445 413.22509766 C65.77073609 400.34064805 65.7293184 387.45620939 65.68481445 374.57177734 C65.68209018 373.78287882 65.67936591 372.9939803 65.67655908 372.18117577 C65.66559232 369.00771999 65.6546133 365.83426426 65.64361694 362.66080859 C65.59311641 348.07596023 65.54428165 333.49110617 65.49609375 318.90625 C65.49367781 318.17512568 65.49126187 317.44400136 65.48877272 316.69072175 C65.28316365 254.36119384 65.28316365 254.36119384 65.31307125 231.61545563 C65.32492912 220.80378807 65.2451091 209.99651176 65 199.1875 C64.97982819 198.29146057 64.95965637 197.39542114 64.93887329 196.472229 C64.09956702 161.56001296 60.66833869 123.39871486 34.96484375 97.16796875 C33.3125 95.3125 33.3125 95.3125 33.3125 93.3125 C32.6525 93.3125 31.9925 93.3125 31.3125 93.3125 C30.14971334 92.14971334 28.99028346 90.98338376 27.84765625 89.80078125 C19.29825708 81.51243243 8.60161249 75.8015801 -2.6875 72.3125 C-3.6465625 72.01214844 -4.605625 71.71179687 -5.59375 71.40234375 C-24.09899392 66.16730764 -40.6539247 71.2489482 -56.92919922 80.29541016 C-61.06947926 82.69035693 -64.90764747 85.38907062 -68.6875 88.3125 C-69.51636719 88.93898438 -70.34523437 89.56546875 -71.19921875 90.2109375 C-101.72815038 113.86735313 -118.12857834 150.27634923 -123.04494286 187.99172401 C-125.55439689 208.00332708 -125.9829274 228.02573321 -125.94553804 248.16763163 C-125.94091068 251.90015812 -125.94809136 255.63266624 -125.95384216 259.3651886 C-125.96238518 265.80083587 -125.96430562 272.23645569 -125.96189499 278.6721077 C-125.95876888 287.98515959 -125.97053225 297.29815193 -125.98644479 306.61118869 C-126.01227064 321.7404616 -126.03236425 336.86973455 -126.04589844 351.99902344 C-126.04711399 353.35099926 -126.04711399 353.35099926 -126.0483541 354.73028772 C-126.05961057 367.56180993 -126.06486664 380.39332778 -126.06774123 393.22485428 C-126.06794522 394.13162893 -126.06814921 395.03840358 -126.06835938 395.97265625 C-126.06855931 396.87830986 -126.06875925 397.78396346 -126.06896524 398.71706112 C-126.07269797 413.81944149 -126.09176895 428.9217561 -126.12345374 444.02410352 C-126.14233746 453.31700713 -126.14834909 462.60974192 -126.13763656 471.9026594 C-126.13131831 478.25714162 -126.13935539 484.61150243 -126.15869068 490.96595801 C-126.1693668 494.62891077 -126.17353333 498.29156855 -126.16021919 501.95451927 C-126.14592531 505.92667749 -126.16250121 509.89837017 -126.18197632 513.87051392 C-126.17285166 515.0239972 -126.163727 516.17748048 -126.15432584 517.3659178 C-126.22686358 524.95970154 -127.1631329 530.74754518 -132.72265625 536.37109375 C-133.39167969 536.82613281 -134.06070313 537.28117187 -134.75 537.75 C-135.42160156 538.22308594 -136.09320313 538.69617187 -136.78515625 539.18359375 C-139.97708804 541.07777914 -142.645213 541.44814688 -146.27563477 541.50537109 C-147.20412735 541.52143402 -148.13261993 541.53749695 -149.08924866 541.55404663 C-153.35026176 541.59875147 -157.61112108 541.6395961 -161.87231445 541.66259766 C-164.11167835 541.6791076 -166.35099063 541.70633136 -168.59008789 541.74462891 C-171.83246989 541.79975923 -175.07361686 541.82133126 -178.31640625 541.8359375 C-179.30532364 541.85860687 -180.29424103 541.88127625 -181.31312561 541.90463257 C-188.37748797 541.88345164 -193.79878324 540.30150697 -199.6875 536.3125 C-204.49424432 531.24496716 -204.8341705 525.79996367 -204.82172108 519.13581371 C-204.82407331 518.28827454 -204.82642554 517.44073537 -204.82884905 516.5675132 C-204.83555281 513.70240071 -204.83508041 510.83733343 -204.83467102 507.97221375 C-204.83796878 505.90737505 -204.84169415 503.84253699 -204.8458125 501.77769977 C-204.85585044 496.08387205 -204.85955216 490.39005488 -204.86220181 484.69621956 C-204.86609948 478.56317134 -204.87567809 472.4301315 -204.88441467 466.29708862 C-204.90325796 452.17784583 -204.91343673 438.05860497 -204.92187535 423.93935315 C-204.9260804 416.96453867 -204.93130254 409.98972506 -204.93655988 403.01491131 C-204.95444972 379.1466473 -204.9694469 355.27838305 -204.97688007 331.41011333 C-204.97735483 329.91146838 -204.97783072 328.41282343 -204.97830774 326.91417848 C-204.97854411 326.17097556 -204.97878049 325.42777264 -204.97902403 324.66204842 C-204.98022524 320.89652511 -204.98144069 317.13100181 -204.98266602 313.36547852 C-204.98302624 312.24455405 -204.98302624 312.24455405 -204.98339374 311.10098465 C-204.99128949 286.86354253 -205.01472718 262.62614931 -205.04722196 238.38872854 C-205.08150248 212.77266076 -205.10122951 187.1566216 -205.10452431 161.5405305 C-205.10494187 158.72973143 -205.10542143 155.91893237 -205.10594749 153.10813332 C-205.10607069 152.41601896 -205.10619388 151.72390461 -205.1063208 151.0108171 C-205.10865492 139.86251222 -205.1243265 128.71426405 -205.14478934 117.5659794 C-205.16502263 106.36527199 -205.17020244 95.16463182 -205.16101871 83.96390327 C-205.15645891 77.8933455 -205.15845758 71.82297223 -205.17778015 65.7524395 C-205.19530464 60.19902022 -205.19450166 54.64592152 -205.17888286 49.09249935 C-205.17649044 47.07970573 -205.18091415 45.06689052 -205.19271151 43.05413004 C-205.2077236 40.3245962 -205.19823231 37.59621401 -205.18248463 34.86670971 C-205.19270683 34.07955227 -205.20292904 33.29239483 -205.21346101 32.48138413 C-205.12839508 25.7568449 -202.57234885 22.33526462 -198.125 17.5625 C-190.61070577 11.74442165 -178.74141812 12.96854068 -169.73510742 12.99682617 C-167.62431807 13.00000103 -165.51491575 12.97638279 -163.40429688 12.95117188 C-154.5335394 12.91004812 -146.64437437 13.5107884 -138.8125 17.9375 C-131.8883496 25.67625633 -132.0839135 34.77990634 -132.078125 44.62890625 C-132.06311922 46.09579777 -132.0463871 47.56267254 -132.02801514 49.02952576 C-131.9845975 52.86155029 -131.96440001 56.69334703 -131.94927979 60.52557373 C-131.92961553 64.44752328 -131.88765652 68.3692301 -131.84765625 72.29101562 C-131.772632 79.96477808 -131.72217334 87.63843777 -131.6875 95.3125 C-131.18297554 94.37321907 -131.18297554 94.37321907 -130.66825867 93.41496277 C-129.12024489 90.53870031 -127.56603242 87.66583133 -126.01171875 84.79296875 C-125.48284058 83.80808472 -124.9539624 82.82320068 -124.40905762 81.80847168 C-117.77685284 69.57517265 -109.65457024 58.94267887 -100.6875 48.3125 C-99.78451172 47.20648437 -99.78451172 47.20648437 -98.86328125 46.078125 C-97.51821426 44.4497146 -96.10997172 42.87374945 -94.6875 41.3125 C-94.0275 41.3125 -93.3675 41.3125 -92.6875 41.3125 C-92.6875 40.6525 -92.6875 39.9925 -92.6875 39.3125 C-92.0275 39.3125 -91.3675 39.3125 -90.6875 39.3125 C-90.3575 38.3225 -90.0275 37.3325 -89.6875 36.3125 C-86.7433121 33.51695072 -83.53197643 31.06016471 -80.32177734 28.57714844 C-78.7324845 27.34731024 -77.15701997 26.09966677 -75.58203125 24.8515625 C-53.77336484 8.07566526 -27.32910065 -0.1219738 0 0 Z " fill="#221F1E" transform="translate(4394.6875,1096.6875)"/>
<path d="M0 0 C0.95946533 0.53713623 1.91893066 1.07427246 2.9074707 1.62768555 C4.37253052 2.45200073 4.37253052 2.45200073 5.8671875 3.29296875 C7.71538072 4.29937848 9.56563456 5.30201363 11.41796875 6.30078125 C12.3505249 6.80544922 13.28308105 7.31011719 14.24389648 7.83007812 C16.28358459 8.93329072 18.32347558 10.03612828 20.36352539 11.13867188 C25.21190093 13.76142606 30.05616155 16.38970575 34.875 19.06640625 C106.28442505 58.65089976 181.94724406 92.98751072 259.36401367 119.09985352 C262.83956201 120.28356003 266.30360652 121.49649681 269.76664734 122.71615601 C365.12625023 156.28453323 463.66224968 180.31237599 604.8671875 201.29296875 C605.53848694 201.38171265 606.20978638 201.47045654 606.90142822 201.56188965 C641.73707498 206.16540231 676.78589204 209.3240543 711.8671875 211.29296875 C712.59580994 211.33444031 713.32443237 211.37591187 714.07513428 211.41864014 C766.56639946 214.40127123 819.32661826 215.81535586 871.8671875 213.29296875 C873.31185394 213.22369171 873.31185394 213.22369171 874.78570557 213.15301514 C901.37919942 211.86361187 927.94462984 210.47826618 954.42529297 207.65478516 C957.82214959 207.29770319 961.22062508 206.9691249 964.62109375 206.6484375 C1018.37612699 201.48952391 1071.99552539 193.24554323 1124.8671875 182.29296875 C1125.89553711 182.08091797 1126.92388672 181.86886719 1127.98339844 181.65039062 C1165.93061015 173.78629169 1203.51281704 164.60011577 1240.8671875 154.29296875 C1241.68441284 154.06782593 1242.50163818 153.84268311 1243.34362793 153.61071777 C1264.69906206 147.71960096 1285.85512728 141.31806248 1306.8671875 134.29296875 C1307.74064819 134.00145935 1308.61410889 133.70994995 1309.51403809 133.40960693 C1341.96553456 122.57296162 1373.95293386 110.94416241 1405.69140625 98.171875 C1412.46560804 95.44813272 1419.25513034 92.76522217 1426.0546875 90.10546875 C1427.01101074 89.73083496 1427.96733398 89.35620117 1428.95263672 88.97021484 C1437.59975985 85.59405361 1446.00611449 83.38104554 1455.3203125 85.9765625 C1457.33667384 86.93314337 1459.06228172 87.98178159 1460.8671875 89.29296875 C1461.50398438 89.751875 1462.14078125 90.21078125 1462.796875 90.68359375 C1468.2232851 94.9616764 1470.72151054 99.22653131 1471.7421875 106.10546875 C1472.31144061 114.18401827 1469.47544631 119.99245781 1464.63647461 126.27197266 C1461.70440889 129.62117095 1458.30182434 132.10917948 1454.6796875 134.66796875 C1453.86870605 135.25247803 1453.05772461 135.8369873 1452.22216797 136.43920898 C1433.95335055 149.47889606 1415.09017037 161.71391413 1395.8671875 173.29296875 C1394.98256836 173.82728516 1394.09794922 174.36160156 1393.18652344 174.91210938 C1379.61549199 183.08672853 1365.845089 190.83726037 1351.8671875 198.29296875 C1350.98579102 198.76524902 1350.10439453 199.2375293 1349.19628906 199.72412109 C1281.42618645 235.94350352 1209.52667317 263.64485431 1135.8671875 285.29296875 C1135.13916931 285.50806091 1134.41115112 285.72315308 1133.66107178 285.94476318 C1047.10598617 311.49837762 957.10276761 327.05755784 716.8671875 333.29296875 C716.03070679 333.24440735 715.19422607 333.19584595 714.33239746 333.14581299 C651.72360943 329.47391969 589.4716194 320.53441015 528.24658203 307.03417969 C524.89213737 306.29844107 521.53448052 305.5793192 518.17578125 304.86328125 C501.9355269 301.37177501 485.89075093 297.28739673 469.88409424 292.8515625 C467.83195326 292.28321043 465.77904189 291.71770159 463.72607422 291.15234375 C440.8899583 284.84851922 418.33564986 277.79764594 395.8671875 270.29296875 C394.25360352 269.75639648 394.25360352 269.75639648 392.60742188 269.20898438 C379.55658429 264.84690781 366.67966179 260.01927482 353.8046875 255.16796875 C352.62302002 254.7237558 352.62302002 254.7237558 351.41748047 254.27056885 C342.48128234 250.90548211 333.63745525 247.41255541 324.88061523 243.6015625 C321.08874228 241.95492562 317.26259373 240.4031958 313.4296875 238.85546875 C306.90773935 236.19164699 300.50581179 233.32534208 294.140625 230.3046875 C289.80821665 228.25221694 285.44350954 226.27265511 281.0793457 224.28881836 C271.39593261 219.88208103 261.80318493 215.36194202 252.32421875 210.53320312 C249.25311455 208.98300347 246.16963293 207.45859067 243.0859375 205.93359375 C241.21755595 205.00740557 239.34939723 204.08076954 237.48132324 203.15396118 C235.67660401 202.25990368 233.87006978 201.36951276 232.06347656 200.47924805 C225.40916552 197.17039423 218.92883687 193.68072601 212.54589844 189.87329102 C209.85076129 188.283278 207.1218576 186.77703553 204.3671875 185.29296875 C199.45063283 182.63689898 194.63372459 179.83117685 189.81640625 177 C187.12749483 175.4436367 184.41655059 173.95034227 181.6796875 172.48046875 C152.44212535 156.64345592 123.5557353 138.3058049 96.875 118.48828125 C91.68609246 114.70105263 86.39679639 111.05524599 81.12084961 107.390625 C73.23818106 101.89948449 65.60772666 96.11760584 58.00292969 90.24902344 C55.25489521 88.12928886 52.5027366 86.01633186 49.73828125 83.91796875 C41.24087205 77.45185512 33.00326721 70.69630794 24.78564453 63.87939453 C22.26295255 61.79330997 19.72153456 59.73064582 17.1796875 57.66796875 C7.94988715 50.12141466 -1.07685129 42.3325382 -9.89453125 34.30859375 C-12.00470741 32.40833041 -14.15569105 30.56812062 -16.3203125 28.73046875 C-22.69123353 23.16238736 -27.73993837 18.59676956 -28.3828125 9.91796875 C-28.1013414 5.83663779 -27.39716592 3.68949887 -25.1328125 0.29296875 C-16.66678492 -6.37177636 -9.08954454 -5.15062781 0 0 Z " fill="#FE9800" transform="translate(499.1328125,1694.70703125)"/>
<path d="M0 0 C1.33591666 -0.00417467 2.67182978 -0.00965291 4.00773633 -0.01631981 C7.67291604 -0.03077604 11.33787093 -0.02652921 15.00306296 -0.019153 C18.95817919 -0.01442401 22.91324658 -0.02692883 26.86834717 -0.03717041 C34.61465774 -0.0543694 42.36088723 -0.0551961 50.10721193 -0.04995751 C56.40372914 -0.04591641 62.70022238 -0.04735865 68.99673843 -0.05270576 C70.34087991 -0.0538284 70.34087991 -0.0538284 71.71217576 -0.05497371 C73.53258872 -0.05650519 75.35300166 -0.05804353 77.1734146 -0.05958868 C94.24646868 -0.07331785 111.31947694 -0.06787324 128.39252998 -0.05640347 C144.00991751 -0.04647194 159.62718656 -0.05940961 175.24455582 -0.08333766 C191.28193273 -0.107724 207.31925444 -0.11733759 223.35664952 -0.11068493 C232.35982974 -0.10719151 241.36291884 -0.10943282 250.36608505 -0.12693596 C258.0308073 -0.14165217 265.69537427 -0.14230107 273.36009346 -0.12486505 C277.26998798 -0.1163476 281.17960505 -0.11422344 285.08948517 -0.1295166 C288.67103131 -0.14335195 292.25206201 -0.13861595 295.83357824 -0.11927737 C297.73814196 -0.11373468 299.64273184 -0.12779867 301.54724586 -0.14263147 C309.00129531 -0.07850708 314.8005803 0.54133861 320.54628265 5.76414019 C325.17516156 10.8618143 326.27886687 16.17097164 326.30667114 22.87693787 C326.31620316 24.14555664 326.32573517 25.41417542 326.33555603 26.72123718 C326.33529449 28.09442676 326.3343569 29.46761634 326.33279419 30.84080505 C326.33668726 32.26559065 326.34102318 33.6903751 326.34577942 35.11515808 C326.35322397 38.09747583 326.35296423 41.07967519 326.34768677 44.06199646 C326.34190903 47.85898692 326.35879016 51.65548688 326.38203144 55.45239639 C326.39686378 58.39519523 326.39762743 61.33787871 326.39452171 64.28070831 C326.39503065 65.67916074 326.40018693 67.07762036 326.41033363 68.47603607 C326.48286704 79.87441309 324.88872877 89.01566699 319.15701294 98.88768005 C318.77335571 99.55928162 318.38969849 100.23088318 317.99441528 100.9228363 C313.41469664 108.73371097 307.99726561 115.93618245 302.62234497 123.20896912 C300.21039346 126.51327603 297.89757727 129.88195704 295.59451294 133.26268005 C289.74628893 141.82794721 283.79521497 150.31953953 277.83914185 158.81004333 C276.04090464 161.37499719 274.24501038 163.94157371 272.44998169 166.5087738 C266.50785769 175.00662372 260.55146928 183.49389889 254.56619263 191.96141052 C248.95615885 199.90247813 243.38591059 207.87133325 237.8142395 215.83934021 C234.30694738 220.85428749 230.79664581 225.86712863 227.28689575 230.88035583 C224.34415654 235.08391652 221.402172 239.28800147 218.46170044 243.4931488 C212.51507165 251.99578471 206.55522392 260.48858711 200.56619263 268.96141052 C194.95615885 276.90247813 189.38591059 284.87133325 183.8142395 292.83934021 C180.30694738 297.85428749 176.79664581 302.86712863 173.28689575 307.88035583 C170.34415654 312.08391652 167.402172 316.28800147 164.46170044 320.4931488 C158.24911725 329.3759186 152.02502015 338.25009197 145.76199341 347.09739685 C145.2993811 347.75135437 144.8367688 348.40531189 144.36013794 349.0790863 C143.95698364 349.64828796 143.55382935 350.21748962 143.13845825 350.80393982 C142.08139174 352.31700038 141.05584314 353.85193476 140.03201294 355.38768005 C140.80464478 355.37720642 141.57727661 355.36673279 142.37332153 355.35594177 C160.36366382 355.14610314 178.11777264 355.49360607 196.03201294 357.38768005 C197.20699341 357.51126892 198.38197388 357.63485779 199.59255981 357.76219177 C236.79516501 361.8414248 300.82856793 371.30201874 327.70779419 401.49705505 C333.12985759 409.23829011 335.17590814 416.08668569 335.20901489 425.42576599 C335.21558609 426.23279968 335.22215729 427.03983337 335.22892761 427.87132263 C335.24861406 430.53823446 335.26031301 433.20509008 335.27029419 435.87205505 C335.27640748 437.24167767 335.27640748 437.24167767 335.28264427 438.63896942 C335.30348547 443.47219617 335.31779546 448.30539469 335.32717896 453.13865662 C335.33823755 458.11969212 335.37263672 463.1002802 335.41235065 468.08115768 C335.43854812 471.92115587 335.44687358 475.76104794 335.45046043 479.60112762 C335.45531851 481.43666352 335.46691021 483.27219492 335.48549843 485.10764313 C335.50995633 487.6827907 335.50891298 490.25678682 335.50198364 492.83201599 C335.52119873 493.95763947 335.52119873 493.95763947 335.540802 495.10600281 C335.48167502 501.16876915 333.72932021 506.3056098 329.69083118 510.92017746 C326.1468366 514.15389113 322.73161032 515.65843218 318.03201294 516.38768005 C311.18639707 515.14644201 305.4714886 512.36056081 299.28201294 509.26268005 C291.78903294 505.59920477 284.28073089 502.10270641 276.53201294 499.01268005 C275.42454712 498.56771179 275.42454712 498.56771179 274.29470825 498.11375427 C262.12377157 493.34391891 249.70747209 489.55494924 237.03201294 486.38768005 C236.35380493 486.21814819 235.67559692 486.04861633 234.97683716 485.87394714 C219.79485951 482.10970767 204.54431808 479.42590452 189.03201294 477.38768005 C188.0452356 477.25635681 187.05845825 477.12503357 186.04177856 476.98973083 C171.86204458 475.2110274 157.61352436 475.18996153 143.34451294 475.13768005 C142.44543213 475.13223175 141.54635132 475.12678345 140.62002563 475.12117004 C123.15571727 475.04241038 105.89383724 476.31964067 88.65701294 479.20018005 C87.617948 479.37194763 86.57888306 479.54371521 85.5083313 479.72068787 C50.52490219 485.64711771 16.6233726 495.95901737 -14.97360229 512.22239685 C-25.15337514 517.35551192 -25.15337514 517.35551192 -30.96798706 516.38768005 C-37.38544913 514.07828194 -41.05749211 509.35856669 -43.96798706 503.38768005 C-45.20835508 499.666576 -45.12353623 496.20673395 -45.12911987 492.33055115 C-45.13408478 491.50885941 -45.13904968 490.68716766 -45.14416504 489.84057617 C-45.15879844 487.11408144 -45.16559582 484.38764517 -45.17111206 481.66111755 C-45.176869 479.75556946 -45.18262666 477.85002136 -45.18838501 475.94447327 C-45.19890275 471.93790925 -45.20473823 467.93136531 -45.20822144 463.92478943 C-45.21366328 458.83595729 -45.23759439 453.74739857 -45.26619339 448.65865135 C-45.28500513 444.71363102 -45.29003543 440.76867357 -45.29155731 436.82361221 C-45.29455025 434.95087336 -45.30246235 433.07813468 -45.31574249 431.20544052 C-45.49954151 403.25809449 -38.03020006 382.58368602 -21.33444214 360.29026794 C-17.5935595 355.28889152 -14.03850905 350.17965528 -10.53048706 345.01268005 C-6.45596329 339.01731792 -2.34909557 333.05043401 1.84451294 327.13768005 C7.26153418 319.49773413 12.61486602 311.81469586 17.95779419 304.12278748 C22.4053148 297.72151944 26.86884078 291.33179008 31.34451294 284.95018005 C35.47895847 279.05391008 39.58775386 273.14162173 43.65701294 267.20018005 C47.83618185 261.09972047 52.07830613 255.04652856 56.34988403 249.01048279 C65.9971068 235.37719878 75.53781956 221.66933583 85.07009888 207.95555115 C89.94491608 200.94432708 94.83735667 193.94566389 99.73855591 186.9528656 C104.22684605 180.54601902 108.69379425 174.12450999 113.15701294 167.70018005 C117.75790606 161.07874262 122.37295125 154.46832528 127.03201294 147.88768005 C131.85376389 141.07524432 136.63749186 134.23678209 141.40701294 127.38768005 C142.40668091 125.95392029 142.40668091 125.95392029 143.42654419 124.49119568 C144.06720825 123.57016052 144.70787231 122.64912537 145.36795044 121.70018005 C145.93046509 120.89193787 146.49297974 120.08369568 147.07254028 119.2509613 C148.78510343 116.7484768 150.47373605 114.23261267 152.15447998 111.70872498 C152.6936738 110.89924911 153.23286762 110.08977325 153.78840065 109.25576782 C154.19879271 108.63929886 154.60918476 108.0228299 155.03201294 107.38768005 C154.17963578 107.39744275 153.32725863 107.40720545 152.44905186 107.41726398 C131.69161544 107.65325927 110.93406262 107.86114331 90.17603397 108.03789234 C80.13751888 108.12404276 70.0992612 108.21964251 60.06106567 108.33763123 C51.30992723 108.44046777 42.55882722 108.52542846 33.80731291 108.58908957 C29.17504819 108.62340599 24.5432525 108.6665595 19.91130257 108.73113441 C15.5471869 108.79169261 11.18351318 108.8282579 6.81902313 108.84681702 C5.22144845 108.85776826 3.62390469 108.87731469 2.02655602 108.90633202 C-6.60314112 109.05790093 -13.96854354 109.05426087 -20.96798706 103.38768005 C-26.17625944 98.04586223 -27.26800995 92.94591796 -27.24264526 85.66331482 C-27.25031166 84.52087814 -27.25031166 84.52087814 -27.25813293 83.35536194 C-27.27199297 80.84652268 -27.27107494 78.33795922 -27.26876831 75.8290863 C-27.27265712 74.07940571 -27.27699217 72.32972605 -27.28175354 70.58004761 C-27.28920795 66.91587766 -27.28893005 63.25180408 -27.28366089 59.58763123 C-27.27786625 54.89905748 -27.2948008 50.21087878 -27.31800556 45.52237034 C-27.33275835 41.9097667 -27.33361252 38.29725787 -27.33049583 34.68462944 C-27.33100823 32.95631566 -27.33623072 31.22799647 -27.34630775 29.49971199 C-27.35868545 27.08002893 -27.35187301 24.66111122 -27.34030151 22.24143982 C-27.35176712 21.17751762 -27.35176712 21.17751762 -27.36346436 20.09210205 C-27.300036 14.0720087 -25.54164053 10.21652058 -21.65548706 5.70018005 C-14.78927778 -0.20795351 -8.70870827 -0.04228676 0 0 Z " fill="#221F1E" transform="translate(1851.9679870605469,1108.612319946289)"/>
<path d="M0 0 C4.37371113 3.93985774 8.56485058 8.02578808 12.7265625 12.1875 C13.314375 12.72890625 13.9021875 13.2703125 14.5078125 13.828125 C59.69603215 56.14073067 78.70286963 125.94012833 85.7265625 185.1875 C85.85686859 186.2778656 85.85686859 186.2778656 85.98980713 187.39025879 C87.72633901 202.32512341 88.1266824 217.1608799 88.1015625 232.1875 C88.10135101 233.36226898 88.10113953 234.53703796 88.10092163 235.74740601 C88.04848768 265.10171856 85.39604524 293.55823565 78.7265625 322.1875 C78.39833496 323.65171387 78.39833496 323.65171387 78.06347656 325.14550781 C67.43769075 372.32152928 46.63312031 416.50099619 13.7265625 452.1875 C13.26040527 452.69361816 12.79424805 453.19973633 12.31396484 453.72119141 C5.59284039 460.92602399 -1.78291558 467.04598923 -9.63476562 472.95019531 C-11.09432767 474.05226033 -12.53673519 475.17696148 -13.9765625 476.3046875 C-46.08733999 500.83101754 -86.20884381 510.40359289 -125.9609375 510.4375 C-127.18940399 510.43901062 -127.18940399 510.43901062 -128.44268799 510.44055176 C-172.34760951 510.40412414 -209.43255297 496.90269627 -243.2734375 469.1875 C-243.82314209 468.74148438 -244.37284668 468.29546875 -244.93920898 467.8359375 C-248.17866418 465.18194967 -250.71048605 462.49453413 -253.2734375 459.1875 C-254.40845703 458.05828125 -254.40845703 458.05828125 -255.56640625 456.90625 C-275.67627141 436.70932915 -290.65933951 410.47267459 -301.2734375 384.1875 C-301.54510742 383.52975586 -301.81677734 382.87201172 -302.09667969 382.19433594 C-335.43445188 301.33978468 -337.72327887 204.7649442 -304.22631836 93.46655273 C-290.29117967 60.13718566 -270.73207466 26.19033625 -242.2734375 3.1875 C-241.26925781 2.35734375 -240.26507812 1.5271875 -239.23046875 0.671875 C-175.71024025 -51.10982262 -75.26173619 -57.82491761 0 0 Z M-193.2734375 60.1875 C-194.56701172 61.44626953 -194.56701172 61.44626953 -195.88671875 62.73046875 C-206.93771817 74.09872174 -215.38364118 88.52528801 -221.2734375 103.1875 C-221.51755371 103.785625 -221.76166992 104.38375 -222.01318359 105 C-232.21726656 130.19717895 -237.51886383 157.2214442 -240.2734375 184.1875 C-240.37785156 185.20634277 -240.48226562 186.22518555 -240.58984375 187.27490234 C-247.10401407 254.28221446 -245.42424813 339.87226518 -204.2734375 396.1875 C-203.57347656 397.15429688 -202.87351562 398.12109375 -202.15234375 399.1171875 C-199.83167679 402.25285975 -199.83167679 402.25285975 -197.2734375 405.1875 C-196.6134375 405.1875 -195.9534375 405.1875 -195.2734375 405.1875 C-195.03882812 405.75210937 -194.80421875 406.31671875 -194.5625 406.8984375 C-185.51919701 422.9571513 -160.0328665 433.60844256 -143.44921875 438.375 C-118.91965626 444.65070603 -93.85842144 440.32830488 -71.94921875 427.8359375 C-64.60293298 423.31019648 -57.9741811 418.09062513 -51.5859375 412.3125 C-50.79135132 411.59767456 -50.79135132 411.59767456 -49.98071289 410.8684082 C-48.70310578 409.6850769 -47.48245518 408.44082723 -46.2734375 407.1875 C-46.2734375 406.5275 -46.2734375 405.8675 -46.2734375 405.1875 C-45.6134375 405.1875 -44.9534375 405.1875 -44.2734375 405.1875 C-3.94173598 358.34656817 1.93781059 292.93675375 1.9765625 233.75 C1.97790192 232.53872437 1.97924133 231.32744873 1.98062134 230.07946777 C1.9758878 210.2815226 1.19626407 190.83217799 -1.2734375 171.1875 C-1.38026855 170.26936523 -1.48709961 169.35123047 -1.59716797 168.40527344 C-5.43020704 136.09193583 -15.2239793 101.32034082 -35.2734375 75.1875 C-36.27117188 73.88425781 -36.27117188 73.88425781 -37.2890625 72.5546875 C-46.61863098 60.7752683 -56.5996338 51.24533712 -69.2734375 43.1875 C-70.10359375 42.63449219 -70.93375 42.08148437 -71.7890625 41.51171875 C-112.71952209 15.28640772 -160.52771953 27.46351832 -193.2734375 60.1875 Z " fill="#221F1E" transform="translate(4050.2734375,1137.8125)"/>
<path d="M0 0 C1.12675644 -0.00151062 1.12675644 -0.00151062 2.27627563 -0.00305176 C39.72336839 0.03080502 74.98535506 11.04053498 104.6875 34.25 C105.23212891 34.67120117 105.77675781 35.09240234 106.33789062 35.52636719 C112.96297616 40.67004273 112.96297616 40.67004273 115.6875 43.25 C115.6875 43.91 115.6875 44.57 115.6875 45.25 C116.52474609 45.5903125 116.52474609 45.5903125 117.37890625 45.9375 C142.88025979 60.43573145 160.2872539 103.91377197 168.6875 130.25 C168.9345166 130.99475586 169.1815332 131.73951172 169.43603516 132.50683594 C172.8600509 142.85044272 175.46638525 153.24406907 177.5625 163.9375 C177.777854 165.02409912 177.99320801 166.11069824 178.21508789 167.23022461 C181.35492916 184.03975164 181.35492916 184.03975164 177.03125 190.6796875 C173.91464904 194.32176188 170.20784591 196.74321803 165.6875 198.25 C164.26704684 198.34572885 162.84260235 198.38806532 161.41894531 198.39526367 C160.13180634 198.40483345 160.13180634 198.40483345 158.81866455 198.41459656 C157.8936615 198.41570938 156.96865845 198.4168222 156.015625 198.41796875 C155.05984558 198.42129715 154.10406616 198.42462555 153.11932373 198.42805481 C151.09517905 198.4331194 149.07102601 198.43546328 147.046875 198.43530273 C143.96339973 198.4374817 140.88028661 198.45562164 137.796875 198.47460938 C135.82812622 198.47754496 133.85937574 198.47952865 131.890625 198.48046875 C130.51526581 198.49124702 130.51526581 198.49124702 129.11212158 198.50224304 C120.69075 198.47248606 114.84013132 197.25256714 108.6875 191.25 C108.6875 190.59 108.6875 189.93 108.6875 189.25 C108.0275 189.25 107.3675 189.25 106.6875 189.25 C104.13640939 181.56822436 102.1052476 173.88608317 100.3125 166 C94.41272219 140.5705497 83.36312274 112.88540473 62.64453125 95.91796875 C60.6875 94.25 60.6875 94.25 58.3203125 91.796875 C43.49478854 77.45527022 19.94895005 70.49281467 -0.34619141 70.71142578 C-26.78356587 71.84845572 -49.65850208 84.58518546 -67.55078125 103.6328125 C-112.50769617 155.85629804 -118.12198841 238.450864 -113.3125 304.25 C-109.32634044 353.6603937 -100.66383337 406.20153595 -69.3125 446.25 C-68.68085938 447.06597656 -68.04921875 447.88195313 -67.3984375 448.72265625 C-52.79972005 466.3343005 -32.16264355 475.84974085 -9.796875 478.953125 C14.70011807 481.04031275 38.54155421 473.05556128 57.328125 457.3203125 C58.10671875 456.63710937 58.8853125 455.95390625 59.6875 455.25 C60.42484375 454.60804688 61.1621875 453.96609375 61.921875 453.3046875 C83.97945163 432.73325965 95.09170214 401.28662214 101.66088867 372.68505859 C103.53455597 364.78863398 106.4736701 359.70604576 112.6875 354.25 C116.10529328 352.61853803 118.85337882 351.99390872 122.6262207 351.95947266 C123.58103836 351.94671295 124.53585602 351.93395325 125.51960754 351.92080688 C126.54051987 351.91858124 127.56143219 351.91635559 128.61328125 351.9140625 C129.67483932 351.9074057 130.7363974 351.9007489 131.8301239 351.89389038 C134.07349926 351.88377808 136.31690461 351.87907292 138.56030273 351.87939453 C141.97756029 351.87502867 145.39351828 351.83871266 148.81054688 351.80078125 C150.99478727 351.79491122 153.17903377 351.79094308 155.36328125 351.7890625 C156.37812088 351.77469147 157.39296051 351.76032043 158.43855286 351.74551392 C164.70286934 351.78548799 169.47049421 352.63709394 174.6875 356.25 C177.63150731 359.27148119 179.66103261 362.14413042 180.6875 366.25 C180.42672472 372.79409608 178.96931382 379.20347438 177.5 385.5625 C177.27932861 386.51890381 177.05865723 387.47530762 176.83129883 388.46069336 C166.88927644 430.60916925 149.20798531 470.24915834 119.06103516 501.80908203 C117.72088181 503.21498055 116.3973052 504.63662191 115.07421875 506.05859375 C107.95585633 513.49332783 100.14389121 519.42822759 91.6875 525.25 C90.76195313 525.89839844 89.83640625 526.54679687 88.8828125 527.21484375 C66.12104472 542.47007109 36.94881368 551.28065414 9.5859375 551.453125 C8.83543121 551.46018463 8.08492493 551.46724426 7.31167603 551.47451782 C-42.94202877 551.83939364 -83.70949744 539.16656558 -121.5 504.8125 C-122.36612915 504.03181152 -122.36612915 504.03181152 -123.24975586 503.23535156 C-124.64403395 501.94897792 -125.98382276 500.60402561 -127.3125 499.25 C-127.3125 498.59 -127.3125 497.93 -127.3125 497.25 C-127.9725 497.25 -128.6325 497.25 -129.3125 497.25 C-161.67961687 463.64915894 -177.75465553 416.58588466 -188.3125 372.25 C-188.51858887 371.39051758 -188.72467773 370.53103516 -188.93701172 369.64550781 C-194.63373854 345.31625529 -197.41894727 319.18316531 -197.515625 294.2265625 C-197.52607849 292.40841034 -197.52607849 292.40841034 -197.53674316 290.55352783 C-197.55405398 286.66064957 -197.56046342 282.76791515 -197.5625 278.875 C-197.56308914 278.21291786 -197.56367828 277.55083572 -197.56428528 276.86869049 C-197.57668146 257.14972073 -197.24539074 237.7850365 -194.3125 218.25 C-194.16264648 217.17927246 -194.01279297 216.10854492 -193.85839844 215.00537109 C-186.75566286 164.43419538 -171.86108168 113.81961114 -141.3125 72.25 C-140.54550781 71.19683594 -139.77851563 70.14367188 -138.98828125 69.05859375 C-134.41525574 62.8891396 -129.50963002 57.09121242 -124.3125 51.4375 C-123.74821289 50.82011963 -123.18392578 50.20273926 -122.60253906 49.56665039 C-121.21585862 48.08596129 -119.7690116 46.66205412 -118.3125 45.25 C-117.6525 45.25 -116.9925 45.25 -116.3125 45.25 C-116.3125 44.59 -116.3125 43.93 -116.3125 43.25 C-112.86932113 39.98952042 -109.058544 37.15257127 -105.3125 34.25 C-104.30960938 33.45980469 -103.30671875 32.66960937 -102.2734375 31.85546875 C-72.52837409 9.11359157 -36.90213801 0.03439863 0 0 Z " fill="#221F1E" transform="translate(3496.3125,1096.75)"/>
<path d="M0 0 C11.83482492 14.27140652 8.32734671 37.78328167 6.91015625 54.8515625 C3.06006928 95.50560995 -8.61414306 136.54755123 -25.875 173.5625 C-26.33519531 174.56216797 -26.79539062 175.56183594 -27.26953125 176.59179688 C-33.46441806 190.00315473 -39.98030488 203.06660221 -47.875 215.5625 C-48.52726562 216.59890625 -49.17953125 217.6353125 -49.8515625 218.703125 C-88.09804022 277.56807425 -88.09804022 277.56807425 -112.875 283.5625 C-117.03315133 283.79858552 -120.00386364 283.23763068 -123.375 280.625 C-126.17196827 274.91452311 -125.57174942 269.82223182 -123.71777344 263.80932617 C-122.39079311 260.15843891 -120.94142135 256.55903345 -119.46347046 252.96697998 C-118.48195765 250.5811431 -117.52112927 248.18788588 -116.56567383 245.79150391 C-115.59436772 243.35571428 -114.62207051 240.92039733 -113.64356995 238.48748779 C-105.71382046 218.76874748 -98.66347875 198.69867623 -91.875 178.5625 C-91.49988281 177.4585791 -91.12476563 176.3546582 -90.73828125 175.21728516 C-82.47110219 150.76491637 -74.67247201 125.31896037 -71.875 99.5625 C-71.79668945 98.87349609 -71.71837891 98.18449219 -71.63769531 97.47460938 C-70.33542817 85.33907188 -69.52198226 71.20988328 -76.7421875 60.7109375 C-95.02302369 42.29617577 -133.39252659 44.75751224 -156.875 44.5625 C-193.11511622 44.66780924 -229.12810102 48.54121959 -265.10180664 52.58081055 C-266.2778949 52.71124756 -267.45398315 52.84168457 -268.66571045 52.97607422 C-270.87350234 53.22125733 -273.08085845 53.47041157 -275.28765869 53.72436523 C-293.23672331 55.70990204 -293.23672331 55.70990204 -299.625 51.375 C-301.66736107 48.41357645 -301.81632983 46.14138046 -301.875 42.5625 C-298.01166076 28.7143333 -280.59564696 21.33853871 -269.08203125 14.828125 C-248.23175861 3.33181558 -225.85948026 -4.43059524 -202.875 -10.4375 C-201.53139404 -10.79086426 -201.53139404 -10.79086426 -200.16064453 -11.15136719 C-184.27195363 -15.24545736 -168.15818008 -17.54758931 -151.875 -19.4375 C-150.85132324 -19.55754395 -149.82764648 -19.67758789 -148.77294922 -19.80126953 C-106.50468866 -24.5227616 -34.38568386 -29.15307979 0 0 Z " fill="#FD9800" transform="translate(2107.875,1679.4375)"/>
<path d="M0 0 C9.57378711 8.27733677 17.34606181 17.85977294 18.4375 30.95703125 C19.38409171 44.28030951 15.21619162 55.48809729 6.6875 65.64453125 C-2.52779519 75.51193299 -15.03842221 81.41967156 -28.5859375 82.02734375 C-43.94875357 81.66444258 -57.09255624 75.35236187 -67.70703125 64.29296875 C-75.7777095 54.1324096 -78.59255057 42.67171798 -77.5625 29.95703125 C-75.51324135 18.07773502 -69.73379614 7.35478104 -60.01953125 0.04296875 C-41.36331589 -12.32433904 -18.31026771 -14.59797258 0 0 Z " fill="#221F1E" transform="translate(3269.5625,1562.04296875)"/>
<path d="M0 0 C11.36554539 8.50105834 19.32693383 19.83208113 21.76123047 33.96386719 C23.64859754 48.29400469 20.6063779 61.18484098 12.27734375 72.921875 C3.17490466 84.50814959 -8.01298277 91.56739702 -22.69921875 93.51171875 C-24.13394531 93.65287109 -24.13394531 93.65287109 -25.59765625 93.796875 C-26.43039062 93.88066406 -27.263125 93.96445313 -28.12109375 94.05078125 C-35.40263174 94.41603639 -41.82264585 92.29385048 -48.59765625 89.796875 C-49.6959375 89.39855469 -49.6959375 89.39855469 -50.81640625 88.9921875 C-61.73034758 84.29561439 -71.25750638 73.6921287 -75.84765625 62.859375 C-80.88509029 49.0274207 -81.32657568 35.5782075 -75.59765625 21.796875 C-68.66666245 7.71517289 -58.42162849 -0.93209763 -43.7890625 -6.4765625 C-29.25853688 -11.29416993 -12.65962184 -8.28928237 0 0 Z M-54.59765625 9.796875 C-55.60828125 10.498125 -56.61890625 11.199375 -57.66015625 11.921875 C-66.08137808 19.3077007 -69.57335693 29.52565795 -70.91015625 40.3203125 C-71.50169773 51.74445727 -66.93316258 62.25635737 -59.59765625 70.796875 C-52.78680798 78.31381553 -42.90067469 83.28229917 -32.71484375 84 C-19.8561076 84.18590944 -8.14900322 80.83193294 1.40234375 71.796875 C9.60858205 62.38762794 13.89580408 51.46368603 13.33984375 38.921875 C11.89058224 26.22048199 5.86843319 17.16501011 -3.72265625 8.984375 C-19.42811806 -2.56375869 -39.18383093 -1.67470467 -54.59765625 9.796875 Z " fill="#231F1E" transform="translate(4937.59765625,1116.203125)"/>
<path d="M0 0 C1.26392578 -0.02900391 2.52785156 -0.05800781 3.83007812 -0.08789062 C11.19033866 -0.13790808 16.23357803 0.22423589 22.4375 4.3125 C25.68988435 8.08946248 26.4375 12.41026016 26.4375 17.3125 C25.53945971 22.21090156 24.408261 25.21034296 20.4375 28.3125 C19.7775 28.3125 19.1175 28.3125 18.4375 28.3125 C18.4375 28.9725 18.4375 29.6325 18.4375 30.3125 C19.365625 30.6528125 19.365625 30.6528125 20.3125 31 C23.21900028 32.79519135 23.40000218 34.03266819 24.4375 37.3125 C25.09418832 40.73467341 25.58446682 44.17389309 26.0625 47.625 C26.26359375 49.02202148 26.26359375 49.02202148 26.46875 50.44726562 C26.79723711 52.73494371 27.11996817 55.02328004 27.4375 57.3125 C23.35519334 58.19934593 19.62528313 58.47356858 15.4375 58.3125 C13.83681288 56.71181288 13.98767293 54.82897303 13.68359375 52.62109375 C13.48540039 51.20473633 13.48540039 51.20473633 13.28320312 49.75976562 C13.14849609 48.76654297 13.01378906 47.77332031 12.875 46.75 C12.73642578 45.75291016 12.59785156 44.75582031 12.45507812 43.72851562 C12.11214425 41.25702664 11.77434647 38.78482601 11.4375 36.3125 C4.5075 35.8175 4.5075 35.8175 -2.5625 35.3125 C-2.5625 42.5725 -2.5625 49.8325 -2.5625 57.3125 C-7.23208927 58.24641785 -9.97716617 58.12167656 -14.5625 57.3125 C-14.58562916 50.02828452 -14.60341801 42.7440769 -14.61431217 35.45983219 C-14.61953975 32.07778187 -14.62663511 28.6957566 -14.63793945 25.3137207 C-14.65084267 21.42920223 -14.65572924 17.54469403 -14.66015625 13.66015625 C-14.66531754 12.44038589 -14.67047882 11.22061554 -14.67579651 9.96388245 C-14.67587204 8.84279587 -14.67594757 7.72170929 -14.67602539 6.56665039 C-14.678246 5.57403702 -14.68046661 4.58142365 -14.68275452 3.55873108 C-14.36790356 -2.32236204 -4.41495775 0.03306259 0 0 Z M-2.5625 10.3125 C-2.5625 15.2625 -2.5625 20.2125 -2.5625 25.3125 C-0.479375 25.209375 1.60375 25.10625 3.75 25 C5.50763672 24.91298828 5.50763672 24.91298828 7.30078125 24.82421875 C10.37679212 24.55055785 10.37679212 24.55055785 12.32421875 23.01953125 C14.33392481 19.93798196 14.17873767 16.8352137 13.4375 13.3125 C11.03762493 10.664362 9.16529474 10.3564539 5.65625 10.14453125 C2.91615147 10.12687598 0.17586725 10.21352287 -2.5625 10.3125 Z " fill="#221F1E" transform="translate(4903.5625,1129.6875)"/>
</svg>
